<svg width="3725" height="1261" viewBox="0 0 3725 1261" fill="none" xmlns="http://www.w3.org/2000/svg">
<path fill-rule="evenodd" clip-rule="evenodd" d="M831.89 256C624.62 256 456 423.979 456 630.5C455.881 709.38 480.955 786.254 527.597 850.003L480.754 989.146L625.263 943.145C686.58 983.627 758.546 1005.15 832.11 1005C1039.38 1005 1208 837.005 1208 630.5C1208 423.994 1039.4 256 832.11 256H831.89V256ZM726.924 446.215C719.624 428.832 714.109 428.176 703.064 427.724C698.87 427.459 694.67 427.319 690.468 427.302C676.086 427.302 661.061 431.484 652.006 440.722C640.961 451.957 613.56 478.14 613.56 531.866C613.56 585.591 652.883 637.553 658.194 644.824C663.725 652.08 734.883 763.915 845.364 809.495C931.766 845.166 957.412 841.858 977.074 837.676C1005.81 831.512 1041.82 810.369 1050.88 784.84C1059.95 759.296 1059.95 737.497 1057.3 732.879C1054.64 728.26 1047.34 725.623 1036.31 720.114C1025.25 714.606 971.543 688.188 961.375 684.662C951.443 680.917 941.949 682.243 934.429 692.807C923.823 707.569 913.435 722.533 905.038 731.552C898.411 738.605 887.57 739.494 878.514 735.734C866.357 730.678 832.329 718.788 790.343 681.587C757.85 652.735 735.76 616.861 729.352 606.063C722.929 595.062 728.694 588.68 733.77 582.735C739.3 575.901 744.596 571.064 750.126 564.682C755.641 558.284 758.743 554.991 762.283 547.517C766.043 540.245 763.38 532.755 760.717 527.231C758.085 521.739 735.98 468.014 726.924 446.23V446.215Z" fill="#67C15E"/>
<path d="M1402.4 770L1324 490H1382L1435.6 697.6L1494 490H1541.2L1600 697.6L1653.6 490H1711.6L1633.2 770H1570.4L1517.6 585.2L1465.2 770H1402.4ZM1844.6 564.4C1866.46 564.4 1884.46 571.733 1898.6 586.4C1913 601.067 1920.2 621.333 1920.2 647.2V770H1868.6V653.6C1868.6 640.267 1865 630.133 1857.8 623.2C1850.6 616 1841 612.4 1829 612.4C1815.66 612.4 1805 616.533 1797 624.8C1789 633.067 1785 645.467 1785 662V770H1733.4V490H1785V592.4C1797.53 573.733 1817.4 564.4 1844.6 564.4ZM2116.26 570H2167.86V770H2116.26V746.4C2100.79 765.867 2079.06 775.6 2051.06 775.6C2024.39 775.6 2001.46 765.467 1982.26 745.2C1963.32 724.667 1953.86 699.6 1953.86 670C1953.86 640.4 1963.32 615.467 1982.26 595.2C2001.46 574.667 2024.39 564.4 2051.06 564.4C2079.06 564.4 2100.79 574.133 2116.26 593.6V570ZM2021.06 710.8C2031.46 721.2 2044.66 726.4 2060.66 726.4C2076.66 726.4 2089.86 721.2 2100.26 710.8C2110.92 700.133 2116.26 686.533 2116.26 670C2116.26 653.467 2110.92 640 2100.26 629.6C2089.86 618.933 2076.66 613.6 2060.66 613.6C2044.66 613.6 2031.46 618.933 2021.06 629.6C2010.66 640 2005.46 653.467 2005.46 670C2005.46 686.533 2010.66 700.133 2021.06 710.8ZM2329.05 619.6H2283.85V702.8C2283.85 709.733 2285.58 714.8 2289.05 718C2292.51 721.2 2297.58 723.067 2304.25 723.6C2310.91 723.867 2319.18 723.733 2329.05 723.2V770C2293.58 774 2268.51 770.667 2253.85 760C2239.45 749.333 2232.25 730.267 2232.25 702.8V619.6H2197.45V570H2232.25V529.6L2283.85 514V570H2329.05V619.6ZM2408.73 626.8C2408.73 632.133 2412.2 636.533 2419.13 640C2426.33 643.2 2435 646.133 2445.13 648.8C2455.26 651.2 2465.4 654.4 2475.53 658.4C2485.66 662.133 2494.2 668.533 2501.13 677.6C2508.33 686.667 2511.93 698 2511.93 711.6C2511.93 732.133 2504.2 748 2488.73 759.2C2473.53 770.133 2454.46 775.6 2431.53 775.6C2390.46 775.6 2362.46 759.733 2347.53 728L2392.33 702.8C2398.2 720.133 2411.26 728.8 2431.53 728.8C2449.93 728.8 2459.13 723.067 2459.13 711.6C2459.13 706.267 2455.53 702 2448.33 698.8C2441.4 695.333 2432.86 692.267 2422.73 689.6C2412.6 686.933 2402.46 683.6 2392.33 679.6C2382.2 675.6 2373.53 669.333 2366.33 660.8C2359.4 652 2355.93 641.067 2355.93 628C2355.93 608.267 2363.13 592.8 2377.53 581.6C2392.2 570.133 2410.33 564.4 2431.93 564.4C2448.2 564.4 2463 568.133 2476.33 575.6C2489.66 582.8 2500.2 593.2 2507.93 606.8L2463.93 630.8C2457.53 617.2 2446.86 610.4 2431.93 610.4C2425.26 610.4 2419.66 611.867 2415.13 614.8C2410.86 617.733 2408.73 621.733 2408.73 626.8ZM2694.38 570H2745.98V770H2694.38V746.4C2678.91 765.867 2657.18 775.6 2629.18 775.6C2602.51 775.6 2579.58 765.467 2560.38 745.2C2541.45 724.667 2531.98 699.6 2531.98 670C2531.98 640.4 2541.45 615.467 2560.38 595.2C2579.58 574.667 2602.51 564.4 2629.18 564.4C2657.18 564.4 2678.91 574.133 2694.38 593.6V570ZM2599.18 710.8C2609.58 721.2 2622.78 726.4 2638.78 726.4C2654.78 726.4 2667.98 721.2 2678.38 710.8C2689.05 700.133 2694.38 686.533 2694.38 670C2694.38 653.467 2689.05 640 2678.38 629.6C2667.98 618.933 2654.78 613.6 2638.78 613.6C2622.78 613.6 2609.58 618.933 2599.18 629.6C2588.78 640 2583.58 653.467 2583.58 670C2583.58 686.533 2588.78 700.133 2599.18 710.8ZM2909.17 564.4C2936.11 564.4 2959.04 574.667 2977.97 595.2C2997.17 615.467 3006.77 640.4 3006.77 670C3006.77 699.6 2997.17 724.667 2977.97 745.2C2959.04 765.467 2936.11 775.6 2909.17 775.6C2881.17 775.6 2859.57 765.867 2844.37 746.4V850H2792.77V570H2844.37V593.6C2859.57 574.133 2881.17 564.4 2909.17 564.4ZM2859.97 710.8C2870.37 721.2 2883.57 726.4 2899.57 726.4C2915.57 726.4 2928.77 721.2 2939.17 710.8C2949.84 700.133 2955.17 686.533 2955.17 670C2955.17 653.467 2949.84 640 2939.17 629.6C2928.77 618.933 2915.57 613.6 2899.57 613.6C2883.57 613.6 2870.37 618.933 2859.97 629.6C2849.57 640 2844.37 653.467 2844.37 670C2844.37 686.533 2849.57 700.133 2859.97 710.8ZM3159.56 564.4C3186.5 564.4 3209.43 574.667 3228.36 595.2C3247.56 615.467 3257.16 640.4 3257.16 670C3257.16 699.6 3247.56 724.667 3228.36 745.2C3209.43 765.467 3186.5 775.6 3159.56 775.6C3131.56 775.6 3109.96 765.867 3094.76 746.4V850H3043.16V570H3094.76V593.6C3109.96 574.133 3131.56 564.4 3159.56 564.4ZM3110.36 710.8C3120.76 721.2 3133.96 726.4 3149.96 726.4C3165.96 726.4 3179.16 721.2 3189.56 710.8C3200.23 700.133 3205.56 686.533 3205.56 670C3205.56 653.467 3200.23 640 3189.56 629.6C3179.16 618.933 3165.96 613.6 3149.96 613.6C3133.96 613.6 3120.76 618.933 3110.36 629.6C3099.96 640 3094.76 653.467 3094.76 670C3094.76 686.533 3099.96 700.133 3110.36 710.8Z" fill="#67C15E"/>
<rect x="25" y="25" width="3675" height="1211" rx="275" stroke="#67C15E" stroke-width="50"/>
</svg>
