<svg xmlns="http://www.w3.org/2000/svg" xmlns:xlink="http://www.w3.org/1999/xlink" viewBox="0 0 441.42 426.16"><defs><style>.cls-1{isolation:isolate;}.cls-2{fill:#eae8ed;}.cls-3{fill:#ff73b5;}.cls-4{fill:#d2448d;}.cls-5{fill:#a68efe;}.cls-6{fill:#bbcddf;}.cls-7{fill:#8140ff;}.cls-8{fill:#f6ba28;}.cls-9{fill:#f2a305;}.cls-10,.cls-16{mix-blend-mode:multiply;}.cls-11{fill:#c5bed1;}.cls-12{fill:#d94693;}.cls-13{fill:#ef529c;}.cls-14{fill:#b52a71;}.cls-15{fill:#edb2d1;}.cls-16,.cls-32{fill:#b0a7c2;}.cls-17{fill:#efdae6;}.cls-18{fill:url(#linear-gradient);}.cls-19{fill:#3f4f5d;}.cls-20{fill:#5d6571;}.cls-21{fill:#fcffff;}.cls-22,.cls-23{fill:#fcfcfc;}.cls-22{opacity:0.69;}.cls-23{opacity:0.93;}.cls-24{fill:#bb426a;}.cls-25{fill:#e8e6ff;}.cls-26{fill:#b5a4e8;}.cls-27{fill:#e59e41;}.cls-28{fill:#ebd863;}.cls-29{fill:#cfc6f5;}.cls-30{fill:#e6a57a;}.cls-31{fill:#d49063;}.cls-33{fill:#f1bc98;}.cls-34{fill:#dcd3fe;}.cls-35{fill:#fbfafc;}</style><linearGradient id="linear-gradient" x1="430.55" y1="95.54" x2="265.99" y2="251.38" gradientUnits="userSpaceOnUse"><stop offset="0" stop-color="#937ed6"/><stop offset="0.42" stop-color="#7aafcb"/><stop offset="1" stop-color="#ec8bb0"/></linearGradient></defs><g class="cls-1"><g id="Default"><path class="cls-2" d="M165.84,398.43l-56,32.35a7.27,7.27,0,0,1-6.58,0h0c-1.82-1-1.82-2.75,0-3.81l56-32.34a7.29,7.29,0,0,1,6.59,0h0C167.66,395.68,167.66,397.38,165.84,398.43Z" transform="translate(-27.62 -35.25)"/><path class="cls-2" d="M209.12,373.45l-29.61,17.09a7.29,7.29,0,0,1-6.59,0h0c-1.82-1.05-1.82-2.75,0-3.8l29.61-17.1a7.29,7.29,0,0,1,6.59,0h0C210.94,370.69,210.94,372.4,209.12,373.45Z" transform="translate(-27.62 -35.25)"/><path class="cls-2" d="M182.45,371.87l-56,32.35a7.29,7.29,0,0,1-6.59,0h0c-1.82-1.05-1.82-2.76,0-3.81l56-32.34a7.29,7.29,0,0,1,6.59,0h0C184.27,369.12,184.27,370.82,182.45,371.87Z" transform="translate(-27.62 -35.25)"/><path class="cls-2" d="M254.08,330.51l-56,32.35a7.29,7.29,0,0,1-6.59,0h0c-1.82-1.05-1.82-2.75,0-3.81l56-32.34a7.29,7.29,0,0,1,6.59,0h0C255.9,327.76,255.9,329.46,254.08,330.51Z" transform="translate(-27.62 -35.25)"/><path class="cls-2" d="M286.26,345.88l-56,32.35a7.29,7.29,0,0,1-6.59,0h0c-1.82-1.05-1.82-2.76,0-3.81l56-32.34a7.29,7.29,0,0,1,6.59,0h0C288.08,343.13,288.08,344.83,286.26,345.88Z" transform="translate(-27.62 -35.25)"/><path class="cls-2" d="M180.54,406.92l-16.4,9.47a7.29,7.29,0,0,1-6.59,0h0c-1.82-1.05-1.82-2.76,0-3.81l16.4-9.46a7.29,7.29,0,0,1,6.59,0h0C182.36,404.17,182.36,405.87,180.54,406.92Z" transform="translate(-27.62 -35.25)"/><path class="cls-2" d="M321.13,325.75l-16.4,9.47a7.29,7.29,0,0,1-6.59,0h0c-1.82-1.06-1.82-2.76,0-3.81l16.4-9.47a7.29,7.29,0,0,1,6.59,0h0C323,323,323,324.7,321.13,325.75Z" transform="translate(-27.62 -35.25)"/><path class="cls-2" d="M193.59,348.47l-56,32.34a7.29,7.29,0,0,1-6.59,0h0c-1.82-1.05-1.82-2.75,0-3.8l56-32.35a7.29,7.29,0,0,1,6.59,0h0C195.41,345.71,195.41,347.42,193.59,348.47Z" transform="translate(-27.62 -35.25)"/><path class="cls-2" d="M228.46,328.33l-16.39,9.47a7.29,7.29,0,0,1-6.59,0h0c-1.82-1.05-1.82-2.75,0-3.8l16.39-9.47a7.29,7.29,0,0,1,6.59,0h0C230.28,325.58,230.28,327.28,228.46,328.33Z" transform="translate(-27.62 -35.25)"/><path class="cls-2" d="M255.7,379.13l-56,32.34a7.29,7.29,0,0,1-6.59,0h0c-1.82-1.05-1.82-2.75,0-3.8l56-32.35a7.29,7.29,0,0,1,6.59,0h0C257.52,376.37,257.52,378.08,255.7,379.13Z" transform="translate(-27.62 -35.25)"/><path class="cls-2" d="M299,354.14l-29.61,17.09a7.29,7.29,0,0,1-6.59,0h0c-1.82-1.05-1.82-2.75,0-3.8l29.61-17.1a7.29,7.29,0,0,1,6.59,0h0C300.8,351.38,300.8,353.09,299,354.14Z" transform="translate(-27.62 -35.25)"/><path class="cls-2" d="M272.31,352.56l-56,32.35a7.29,7.29,0,0,1-6.59,0h0c-1.82-1.05-1.82-2.75,0-3.8l56-32.35a7.29,7.29,0,0,1,6.59,0h0C274.13,349.81,274.13,351.51,272.31,352.56Z" transform="translate(-27.62 -35.25)"/><path class="cls-2" d="M344,311.21l-56,32.34a7.29,7.29,0,0,1-6.59,0h0c-1.82-1.05-1.82-2.75,0-3.8l56-32.35a7.29,7.29,0,0,1,6.59,0h0C345.77,308.45,345.77,310.15,344,311.21Z" transform="translate(-27.62 -35.25)"/><path class="cls-2" d="M376.12,326.57l-56,32.35a7.29,7.29,0,0,1-6.59,0h0c-1.82-1.05-1.82-2.76,0-3.81l56-32.34a7.29,7.29,0,0,1,6.59,0h0C377.94,323.82,377.94,325.52,376.12,326.57Z" transform="translate(-27.62 -35.25)"/><path class="cls-2" d="M270.4,387.61,254,397.08a7.29,7.29,0,0,1-6.59,0h0c-1.82-1.05-1.82-2.75,0-3.81l16.4-9.46a7.29,7.29,0,0,1,6.59,0h0C272.22,384.86,272.22,386.56,270.4,387.61Z" transform="translate(-27.62 -35.25)"/><path class="cls-2" d="M411,306.44l-16.39,9.47a7.29,7.29,0,0,1-6.59,0h0c-1.82-1.05-1.82-2.76,0-3.81l16.39-9.47a7.29,7.29,0,0,1,6.59,0h0C412.81,303.68,412.81,305.39,411,306.44Z" transform="translate(-27.62 -35.25)"/><path class="cls-2" d="M283.45,329.16l-56,32.34a7.29,7.29,0,0,1-6.59,0h0c-1.82-1.05-1.82-2.75,0-3.8l56-32.35a7.29,7.29,0,0,1,6.59,0h0C285.27,326.4,285.27,328.11,283.45,329.16Z" transform="translate(-27.62 -35.25)"/><path class="cls-2" d="M318.33,309l-16.4,9.47a7.29,7.29,0,0,1-6.59,0h0c-1.82-1.05-1.82-2.75,0-3.8l16.4-9.47a7.29,7.29,0,0,1,6.59,0h0C320.15,306.27,320.15,308,318.33,309Z" transform="translate(-27.62 -35.25)"/><path class="cls-2" d="M308.91,417.68l-29.61,17.1a7.29,7.29,0,0,1-6.59,0h0c-1.82-1-1.82-2.76,0-3.81l29.61-17.09a7.29,7.29,0,0,1,6.59,0h0C310.73,414.93,310.73,416.63,308.91,417.68Z" transform="translate(-27.62 -35.25)"/><path class="cls-2" d="M282.24,416.11l-56,32.34a7.23,7.23,0,0,1-6.59,0h0c-1.82-1.05-1.82-2.75,0-3.8l56-32.35a7.29,7.29,0,0,1,6.59,0h0C284.06,413.36,284.06,415.06,282.24,416.11Z" transform="translate(-27.62 -35.25)"/><path class="cls-2" d="M353.87,374.75l-56,32.34a7.23,7.23,0,0,1-6.59,0h0c-1.82-1-1.82-2.75,0-3.8l56-32.34a7.23,7.23,0,0,1,6.59,0h0C355.69,372,355.69,373.7,353.87,374.75Z" transform="translate(-27.62 -35.25)"/><path class="cls-2" d="M386.05,390.12l-56,32.34a7.29,7.29,0,0,1-6.59,0h0c-1.81-1-1.81-2.75,0-3.8l56-32.35a7.29,7.29,0,0,1,6.59,0h0C387.87,387.36,387.87,389.07,386.05,390.12Z" transform="translate(-27.62 -35.25)"/><path class="cls-2" d="M280.33,451.16l-16.4,9.46a7.29,7.29,0,0,1-6.59,0h0c-1.82-1.05-1.82-2.75,0-3.8l16.4-9.47a7.29,7.29,0,0,1,6.59,0h0C282.15,448.4,282.15,450.11,280.33,451.16Z" transform="translate(-27.62 -35.25)"/><path class="cls-2" d="M420.92,370l-16.4,9.47a7.29,7.29,0,0,1-6.59,0h0c-1.82-1.05-1.82-2.75,0-3.8l16.4-9.47a7.29,7.29,0,0,1,6.59,0h0C422.74,367.23,422.74,368.93,420.92,370Z" transform="translate(-27.62 -35.25)"/><path class="cls-2" d="M293.38,392.7l-56,32.35a7.29,7.29,0,0,1-6.59,0h0c-1.82-1.05-1.82-2.76,0-3.81l56-32.34a7.29,7.29,0,0,1,6.59,0h0C295.2,390,295.2,391.65,293.38,392.7Z" transform="translate(-27.62 -35.25)"/><path class="cls-2" d="M328.25,372.57,311.86,382a7.29,7.29,0,0,1-6.59,0h0c-1.82-1.05-1.82-2.76,0-3.81l16.39-9.47a7.29,7.29,0,0,1,6.59,0h0C330.07,369.82,330.07,371.52,328.25,372.57Z" transform="translate(-27.62 -35.25)"/><path class="cls-2" d="M91.6,287.31l-56,32.34a7.29,7.29,0,0,1-6.59,0h0c-1.82-1-1.82-2.75,0-3.8L85,283.5a7.29,7.29,0,0,1,6.59,0h0C93.42,284.55,93.42,286.26,91.6,287.31Z" transform="translate(-27.62 -35.25)"/><path class="cls-2" d="M134.88,262.32l-29.61,17.09a7.29,7.29,0,0,1-6.59,0h0c-1.82-1.05-1.82-2.75,0-3.8l29.61-17.09a7.29,7.29,0,0,1,6.59,0h0C136.7,259.57,136.7,261.27,134.88,262.32Z" transform="translate(-27.62 -35.25)"/><path class="cls-2" d="M108.21,260.75l-56,32.34a7.29,7.29,0,0,1-6.59,0h0c-1.82-1-1.82-2.75,0-3.8l56-32.35a7.29,7.29,0,0,1,6.59,0h0C110,258,110,259.7,108.21,260.75Z" transform="translate(-27.62 -35.25)"/><path class="cls-2" d="M179.85,219.39l-56,32.34a7.29,7.29,0,0,1-6.59,0h0c-1.82-1-1.82-2.75,0-3.8l56-32.35a7.29,7.29,0,0,1,6.59,0h0C181.67,216.63,181.67,218.34,179.85,219.39Z" transform="translate(-27.62 -35.25)"/><path class="cls-2" d="M212,234.76,156,267.1a7.29,7.29,0,0,1-6.59,0h0c-1.82-1.05-1.82-2.75,0-3.8l56-32.35a7.29,7.29,0,0,1,6.59,0h0C213.84,232,213.84,233.7,212,234.76Z" transform="translate(-27.62 -35.25)"/><path class="cls-2" d="M106.3,295.79l-16.4,9.47a7.29,7.29,0,0,1-6.59,0h0c-1.82-1.05-1.82-2.75,0-3.8L99.71,292a7.29,7.29,0,0,1,6.59,0h0C108.12,293,108.12,294.74,106.3,295.79Z" transform="translate(-27.62 -35.25)"/><path class="cls-2" d="M246.89,214.62l-16.39,9.47a7.29,7.29,0,0,1-6.59,0h0c-1.82-1.05-1.82-2.76,0-3.81l16.39-9.46a7.29,7.29,0,0,1,6.59,0h0C248.71,211.87,248.71,213.57,246.89,214.62Z" transform="translate(-27.62 -35.25)"/><path class="cls-2" d="M119.35,237.34l-56,32.35a7.29,7.29,0,0,1-6.59,0h0c-1.82-1.05-1.82-2.76,0-3.81l56-32.34a7.29,7.29,0,0,1,6.59,0h0C121.17,234.59,121.17,236.29,119.35,237.34Z" transform="translate(-27.62 -35.25)"/><path class="cls-2" d="M154.23,217.21l-16.4,9.46a7.23,7.23,0,0,1-6.59,0h0c-1.82-1-1.82-2.75,0-3.8l16.4-9.47a7.29,7.29,0,0,1,6.59,0h0C156.05,214.45,156.05,216.16,154.23,217.21Z" transform="translate(-27.62 -35.25)"/><path class="cls-2" d="M234.67,306.56l-29.61,17.09a7.29,7.29,0,0,1-6.59,0h0c-1.82-1-1.82-2.75,0-3.8l29.61-17.1a7.29,7.29,0,0,1,6.59,0h0C236.49,303.8,236.49,305.51,234.67,306.56Z" transform="translate(-27.62 -35.25)"/><path class="cls-2" d="M208,305l-56,32.35a7.27,7.27,0,0,1-6.58,0h0c-1.82-1.05-1.82-2.76,0-3.81l56-32.34a7.29,7.29,0,0,1,6.59,0h0C209.82,302.23,209.82,303.93,208,305Z" transform="translate(-27.62 -35.25)"/><path class="cls-2" d="M279.64,263.62l-56,32.35a7.29,7.29,0,0,1-6.59,0h0c-1.82-1.05-1.82-2.76,0-3.81l56-32.34a7.29,7.29,0,0,1,6.59,0h0C281.45,260.87,281.45,262.57,279.64,263.62Z" transform="translate(-27.62 -35.25)"/><path class="cls-2" d="M311.81,279l-56,32.35a7.29,7.29,0,0,1-6.59,0h0c-1.82-1-1.82-2.76,0-3.81l56-32.34a7.29,7.29,0,0,1,6.59,0h0C313.63,276.24,313.63,277.94,311.81,279Z" transform="translate(-27.62 -35.25)"/><path class="cls-2" d="M206.09,340l-16.4,9.47a7.29,7.29,0,0,1-6.59,0h0c-1.82-1.05-1.82-2.76,0-3.81l16.4-9.47a7.29,7.29,0,0,1,6.59,0h0C207.91,337.28,207.91,339,206.09,340Z" transform="translate(-27.62 -35.25)"/><path class="cls-2" d="M346.68,258.86l-16.4,9.46a7.29,7.29,0,0,1-6.59,0h0c-1.81-1.05-1.81-2.75,0-3.8l16.4-9.47a7.29,7.29,0,0,1,6.59,0h0C348.5,256.1,348.5,257.81,346.68,258.86Z" transform="translate(-27.62 -35.25)"/><path class="cls-2" d="M219.14,281.58l-56,32.34a7.29,7.29,0,0,1-6.59,0h0c-1.82-1.05-1.82-2.75,0-3.8l56-32.35a7.29,7.29,0,0,1,6.59,0h0C221,278.82,221,280.53,219.14,281.58Z" transform="translate(-27.62 -35.25)"/><path class="cls-2" d="M254,261.44l-16.4,9.47a7.29,7.29,0,0,1-6.59,0h0c-1.82-1.05-1.82-2.75,0-3.8l16.4-9.47a7.29,7.29,0,0,1,6.59,0h0C255.84,258.69,255.84,260.39,254,261.44Z" transform="translate(-27.62 -35.25)"/><path class="cls-3" d="M222.87,273.41a4.79,4.79,0,0,0-2.15-3.76,1.55,1.55,0,0,0-1.44-.12l-1.46.87a2.6,2.6,0,0,1,.39-1.5,1.65,1.65,0,0,1,.48-.43,1.55,1.55,0,0,1,.56-.19,3.35,3.35,0,0,1,2.47,1.14,7.28,7.28,0,0,1,1.84,3.25,3.53,3.53,0,0,1-.25,2.77,1.47,1.47,0,0,1-.45.41,1.58,1.58,0,0,1-.58.22,2.56,2.56,0,0,1-1.49-.4l1.47-.87a1.4,1.4,0,0,0,.58-1A2.8,2.8,0,0,0,222.87,273.41Z" transform="translate(-27.62 -35.25)"/><path class="cls-4" d="M218.68,268.47l10.71-6.33a4.12,4.12,0,0,1,4.89.53,4.33,4.33,0,0,1-.87,7h0l-10.56,6.23h0a1.47,1.47,0,0,0,.45-.41,3.53,3.53,0,0,0,.25-2.77,7.28,7.28,0,0,0-1.84-3.25,3.35,3.35,0,0,0-2.47-1.14,1.55,1.55,0,0,0-.56.19Z" transform="translate(-27.62 -35.25)"/><path class="cls-3" d="M196.75,256.84a3.55,3.55,0,0,1-.24,2.76,1.67,1.67,0,0,1-.46.42,1.5,1.5,0,0,1-.58.21,2.44,2.44,0,0,1-1.49-.4l1.47-.87a1.34,1.34,0,0,0,.54-.76,4.45,4.45,0,0,0-1.52-4,2.61,2.61,0,0,0-1.08-.62,1.29,1.29,0,0,0-.91.09l-1.47.87a2.6,2.6,0,0,1,.39-1.5,1.75,1.75,0,0,1,.48-.42,1.64,1.64,0,0,1,.56-.2,3.36,3.36,0,0,1,2.47,1.15A7.13,7.13,0,0,1,196.75,256.84Z" transform="translate(-27.62 -35.25)"/><path class="cls-4" d="M202.56,246.32h0a4.09,4.09,0,0,1,4.89.53,4.32,4.32,0,0,1-.71,6.86l-.17.1L196.06,260h0a1.67,1.67,0,0,0,.46-.42,3.55,3.55,0,0,0,.24-2.76,7.13,7.13,0,0,0-1.84-3.25,3.36,3.36,0,0,0-2.47-1.15,1.64,1.64,0,0,0-.56.2h0Z" transform="translate(-27.62 -35.25)"/><path class="cls-5" d="M167.81,268.27,191,254.56l1.47-.87a1.29,1.29,0,0,1,.91-.09,2.61,2.61,0,0,1,1.08.62,4.45,4.45,0,0,1,1.52,4,1.34,1.34,0,0,1-.54.76l-1.47.87-23.19,13.7h0a8.91,8.91,0,0,0-3.31,3.11,3.51,3.51,0,0,0-.08,3.57,8.87,8.87,0,0,0,3.39,3.24h0c.35.22.71.43,1.07.64h0c2.93,1.76,7.89,3.07,13.41,2.66a21.67,21.67,0,0,0,9.31-2.64h0l0,0q11.59-6.86,23.2-13.7l1.46-.87a1.55,1.55,0,0,1,1.44.12,4.79,4.79,0,0,1,2.15,3.76,2.8,2.8,0,0,1,0,.4,1.4,1.4,0,0,1-.58,1l-1.47.87-23.2,13.7h0c-7.45,4.48-19.7,4.84-28,.42a14.09,14.09,0,0,0-.48-3.49,1.46,1.46,0,0,0-.93-1.1,1.93,1.93,0,0,0-1.42.22l-1.94,1.14A11,11,0,0,1,161,278.5c0-4.43,3.05-8.05,6.81-10.24Z" transform="translate(-27.62 -35.25)"/><path class="cls-6" d="M92.82,294.14a.1.1,0,0,1,.05,0h0l.69-.41,4.21-2.48.89-.53a.48.48,0,0,1,.18-.05,2.9,2.9,0,0,1,2.09,2.21,1.1,1.1,0,0,1-.38,1h0l-3.77,2.23-2.12,1.25h0a1.89,1.89,0,0,0-.7,1.24h0v.64h0a5.54,5.54,0,0,1-2.51,4.46h0l-8.73,5.16h0c-2.17,1.26-4.42,3.41-4.42,6s2.23,4.72,4.42,6h0l.87.52h0c3.38,2,9.12,3.44,15.36,2.7a22.59,22.59,0,0,0,8.56-2.7h0l52.72-31.14.88-.52h0a.63.63,0,0,1,.31-.1c.87-.05,1.87,1.32,1.89,2.41a1,1,0,0,1-.34.86l-.06,0-.87.51h0l-52.7,31.14h0c-7.47,4.5-20,4.55-27.54,0h0l-.85-.51h0c-3.8-2.2-6.82-6-6.14-10.45.53-3.46,3.14-6.21,6.1-7.93l0,0h0l8.73-5.16h0a1.88,1.88,0,0,0,.7-1.24h0v-.64h0a5.55,5.55,0,0,1,2.14-4.2A2.37,2.37,0,0,1,92.82,294.14Z" transform="translate(-27.62 -35.25)"/><path class="cls-7" d="M169.15,286.3a14.09,14.09,0,0,1,.48,3.49l-6.32,3.73h0a1,1,0,0,0,.28-.25,2.18,2.18,0,0,0,.16-1.69,4.48,4.48,0,0,0-1.13-2,2,2,0,0,0-1.51-.7.77.77,0,0,0-.35.12h0l4.1-2.43,1.94-1.14a1.93,1.93,0,0,1,1.42-.22A1.46,1.46,0,0,1,169.15,286.3Z" transform="translate(-27.62 -35.25)"/><path class="cls-5" d="M160.23,290.19a1.61,1.61,0,0,1,.24-.94.88.88,0,0,1,.29-.25.77.77,0,0,1,.35-.12,2,2,0,0,1,1.51.7,4.48,4.48,0,0,1,1.13,2,2.18,2.18,0,0,1-.16,1.69,1,1,0,0,1-.28.25.92.92,0,0,1-.36.13,1.47,1.47,0,0,1-.91-.26l.87-.51.06,0a1,1,0,0,0,.34-.86c0-1.09-1-2.46-1.89-2.41a.63.63,0,0,0-.31.1h0Z" transform="translate(-27.62 -35.25)"/><path class="cls-7" d="M114.71,295.86c0,2-1.52,3.62-3.25,4.64-5,3-13.76,2.46-17.49-1.36v-.58h0a1.89,1.89,0,0,1,.7-1.24h0l2.12-1.25c4.4,2,10.7,1.8,14.67-.55,2.06-1.22,3.25-2.89,3.25-4.64Z" transform="translate(-27.62 -35.25)"/><path class="cls-5" d="M113.16,287.51a4.8,4.8,0,0,1,1.55,3.36c0,1.75-1.19,3.42-3.25,4.64-4,2.35-10.27,2.57-14.67.55l3.77-2.23h0a9.07,9.07,0,0,0,7.19-.51,3.34,3.34,0,0,0,1.58-1.75,2,2,0,0,0,.13-.79v-3.11a2.67,2.67,0,0,0-1.2-2.16,6.36,6.36,0,0,0-2.19-1A12.77,12.77,0,0,1,113.16,287.51Z" transform="translate(-27.62 -35.25)"/><path class="cls-8" d="M106.07,284.47a6.36,6.36,0,0,1,2.19,1,2.67,2.67,0,0,1,1.2,2.16,3,3,0,0,1-1.71,2.39c-2.61,1.53-6.73,1.26-8.81-.34a2.74,2.74,0,0,1-1.2-2,3,3,0,0,1,1.72-2.53,7.25,7.25,0,0,1,1.66-.69A9.77,9.77,0,0,1,106.07,284.47Z" transform="translate(-27.62 -35.25)"/><path class="cls-5" d="M92.49,291a4.9,4.9,0,0,1,2.06-4,13.37,13.37,0,0,1,6.57-2.59,7.25,7.25,0,0,0-1.66.69,3,3,0,0,0-1.72,2.53v3.18a2,2,0,0,0,0,.34l-4.21,2.48A4.54,4.54,0,0,1,92.49,291Z" transform="translate(-27.62 -35.25)"/><path class="cls-9" d="M109.46,290.78a2,2,0,0,1-.13.79,3.34,3.34,0,0,1-1.58,1.75,9.07,9.07,0,0,1-7.19.51h0a1.1,1.1,0,0,0,.38-1,2.9,2.9,0,0,0-2.09-2.21.48.48,0,0,0-.18.05l-.89.53a2,2,0,0,1,0-.34v-3.18a2.74,2.74,0,0,0,1.2,2c2.08,1.6,6.2,1.87,8.81.34a3,3,0,0,0,1.71-2.39Z" transform="translate(-27.62 -35.25)"/><path class="cls-7" d="M92.87,294.1h0a.1.1,0,0,0-.05,0,2.37,2.37,0,0,0-.33.22V291a4.54,4.54,0,0,0,1.07,2.65Z" transform="translate(-27.62 -35.25)"/><g class="cls-10"><path class="cls-11" d="M224.35,275.19a1.52,1.52,0,0,1-1.94.77,2.16,2.16,0,0,0-2,.35c-7.46,4.32-14.94,8.61-22.4,12.93a25.86,25.86,0,0,1-9,3.08,35.56,35.56,0,0,1-4.6.51c-3.13.09-9.46-.57-13.36-2.67a8.32,8.32,0,0,1,1,.14,30.72,30.72,0,0,0,9.31,1.3,34.24,34.24,0,0,0,14.53-3.27c2.31-1.14,4.5-2.54,6.73-3.83l20.11-11.64a7.24,7.24,0,0,1,.69-.31c.35.91.69,1.79,1,2.67Z" transform="translate(-27.62 -35.25)"/><path class="cls-11" d="M164.58,291.26l.62,1.61c-.39.14-.75.43-1,.35a2.47,2.47,0,0,0-2,.57q-25.24,14.56-50.48,29.14a32.14,32.14,0,0,1-10.1,4.09,33.19,33.19,0,0,1-10.43.34,17.52,17.52,0,0,1-4.49-1c1.49.13,2.69.14,3.85.35a22.23,22.23,0,0,0,8.87-.26A35.8,35.8,0,0,0,110,322.74c13.15-7.72,26.4-15.28,39.61-22.9q7-4,14-8.07C163.84,291.59,164.18,291.45,164.58,291.26Z" transform="translate(-27.62 -35.25)"/><path class="cls-11" d="M195.94,256.65c.32,1,.58,1.88.83,2.71-.82,1-1.74.77-2.7.37l-6.31,3.63-16,9.25a17.24,17.24,0,0,0-2.28,1.5,6.31,6.31,0,0,0-2.36,3.39,4.91,4.91,0,0,1,2-5.24,54,54,0,0,1,4.76-3q10.69-6.19,21.42-12.35A5.21,5.21,0,0,1,195.94,256.65Z" transform="translate(-27.62 -35.25)"/><path class="cls-11" d="M114.67,292.81a29.29,29.29,0,0,1,0,3.38,4.79,4.79,0,0,1-1.82,3,12.51,12.51,0,0,1-6.08,2.67A14.57,14.57,0,0,1,102,302a34.07,34.07,0,0,1-.07-4.74,19.83,19.83,0,0,0,5.65-.44,22.5,22.5,0,0,0,3.66-1.32,7,7,0,0,0,3.09-2.79Z" transform="translate(-27.62 -35.25)"/><path class="cls-11" d="M95.48,297.17a1.85,1.85,0,0,0-1.5,2,5.71,5.71,0,0,1-3.18,5c-2.44,1.4-4.87,2.84-7.32,4.23-2.24,1.26-4.38,2.61-5.46,5.14a4.74,4.74,0,0,1,1.62-3.6,15.87,15.87,0,0,1,2.84-2.18c2.78-1.67,5.6-3.25,8.41-4.86l.55-.31c1.34-.84,1.4-1.09.55-2.53.49-.75,1-1.54,1.5-2.31a6.59,6.59,0,0,1,2.27-2.12c1.68-.94,3.34-1.92,5.14-3l.8,1.56-4,2.42,2.16,5.24a5,5,0,0,1-3-.84c-.26-.15-.37-.6-.49-.94C96.09,299.16,95.79,298.17,95.48,297.17Z" transform="translate(-27.62 -35.25)"/><path class="cls-11" d="M196.77,259.32v-2.84l1.65-1c2.35-1.36,4.69-2.73,7.05-4.07,1.22-.69,2.49-1.3,3-2.9a4.12,4.12,0,0,1-1.84,5.34c-1.33.81-2.7,1.57-4.06,2.35l-5.29,3A3.29,3.29,0,0,1,196.77,259.32Z" transform="translate(-27.62 -35.25)"/><path class="cls-11" d="M223.38,275.25c.54-.93.15-1.91.09-2.93l2.7-1.58c2-1.17,4.06-2.35,6.09-3.51,1.21-.69,2.48-1.28,3-2.84a3.74,3.74,0,0,1-1.08,4.71,15.52,15.52,0,0,1-1.84,1.18q-3.71,2.18-7.43,4.31a14.12,14.12,0,0,1-1.56.63Z" transform="translate(-27.62 -35.25)"/><path class="cls-11" d="M109.36,288.27a10.61,10.61,0,0,1,1.13.73,2.27,2.27,0,0,1-.06,3.75,7.55,7.55,0,0,1-3.14,1.33,8.92,8.92,0,0,1-1.71.16c-.93,0-1.86,0-2.88,0v-3C105.23,291,107.85,290.87,109.36,288.27Z" transform="translate(-27.62 -35.25)"/></g><path class="cls-12" d="M244.61,151.22c0,.58-.09,1.82,0,2.45.08.42.2.27.44,0a5.38,5.38,0,0,0,.7-.84,5.14,5.14,0,0,0,.12-1.83c0-.87,0-3.44,0-3.68-.05-.6.15-2.7-.14-2.71-.08,0-.2.17-.3.3C244.43,146.1,244.61,144.68,244.61,151.22Zm-7.19-1.16c0,.25,0,.5,0,.75,0,.51,0,1,0,1.52,0,.27,0,4.68,0,4.81.12.65.82.17,1.61,0a1.06,1.06,0,0,0,.68-.32.82.82,0,0,0,.14-.72,6.44,6.44,0,0,1,0-.76c0-.5,0-1,0-1.53,0-.12,0-3.37,0-3.49,0-.74.1-1.44-.14-1.59s-.86.15-1.46.3a2,2,0,0,0-.42.12.76.76,0,0,0-.41.49A2.15,2.15,0,0,0,237.42,150.06Zm-2.07-.28c-.27-.25-.9-.06-1.17-.05s-1.13-.09-1.34.39c-.08.14-.05.19-.06,1.19,0,.05,0,6.4,0,6.45.12.62.79.36,1.31.32a4.89,4.89,0,0,0,.76,0,.79.79,0,0,0,.58-.35c.11-.24,0-5.93.06-6.32C235.52,150.63,235.59,150,235.35,149.78Zm6.14,6c.09.53.42.2,1-.12s.92-.43,1-1.13a7.48,7.48,0,0,0,0-1c0-.56,0-1.13,0-1.69,0-1,0-2.54,0-3.4,0-.5.1-1.43-.14-1.54s-.48.18-.85.39c-.88.46-1.07.54-.95,2.08,0,.72-.05,1.17,0,3.35S241.42,155.35,241.49,155.74ZM229,149.69a2,2,0,0,0-.55,0,.5.5,0,0,0-.37.21c-.1.15-.08,0-.08,4.53,0,2.57,0,2.81,0,3.11.12.71.88.47,1.72.62a1.63,1.63,0,0,0,.54,0,.61.61,0,0,0,.39-.22c.08-.15.06,0,.06-4.53,0-2.85,0-2.14,0-2.74C230.78,149.5,230.06,149.87,229,149.69Zm-5.34,1.94c0,.22,0,4.6,0,4.79.11.77.9.64,1.58.93a1,1,0,0,0,.54.14.44.44,0,0,0,.32-.26,1.3,1.3,0,0,0,0-.44,3.61,3.61,0,0,1,0-.74,11.47,11.47,0,0,0-.05-1.55c0-.59,0-1.15,0-1.73s0-1.2,0-1.75c0-1.13.14-1.63-.44-1.9-.25-.12-.76-.17-1.14-.34a1.18,1.18,0,0,0-.53-.15.46.46,0,0,0-.33.27.9.9,0,0,0,0,.43,4.74,4.74,0,0,1,0,.76C223.63,150.59,223.69,151.12,223.7,151.63Zm-2.9-4.5c-.25-.17-.54-.38-.67-.09,0,.06,0,7.5,0,7.58.08.74.65.77,1.24,1.17.26.16.56.39.68.09a.61.61,0,0,0,0-.27c0-.14,0-5.92,0-6A5,5,0,0,0,222,148C221.78,147.52,221.32,147.48,220.8,147.13Zm-3.1-2.1a1.46,1.46,0,0,1,0,.48c0,.17,0,5.8,0,6.1,0,.93,0,1.07.46,1.64a3.57,3.57,0,0,0,.45.49.4.4,0,0,0,.13.16.22.22,0,0,0,.18,0c.07-.09,0-.27,0-.41a1.54,1.54,0,0,1,0-.49c0-.15,0-5.8,0-6.08,0-1.16-.08-1.21-.47-1.65a2.55,2.55,0,0,0-.26-.3.82.82,0,0,1-.17-.2c-.05,0-.09-.12-.14-.14a.15.15,0,0,0-.19,0C217.62,144.71,217.68,144.89,217.7,145Zm-1,4.75a9,9,0,0,0,.32,1.55,8.07,8.07,0,0,0,.06-1.67,12.05,12.05,0,0,0,0-1.58c0-.71,0-2.8.07-3.65a5,5,0,0,0-.15-1.59c-.12-.73-.21-1.11-.26-.73V140h.07c0,2.18,1.3,3.82,3,5.13,5.68,4.29,16.67,4.5,22.71.87,2.89-1.66,4.43-3.91,4.43-6.17v2.08s-.06,0-.08.08,0,.06,0,.08,0,.13-.06.2a.78.78,0,0,0-.06.23,4,4,0,0,0-.18.88c0,.19,0,7.91,0,8s.07,0,.08-.08,0-.06,0-.09a.53.53,0,0,1,.06-.2.74.74,0,0,0,.05-.23,5.51,5.51,0,0,0,.18-.71,5.67,5.67,0,0,1-.4,2.58,8.58,8.58,0,0,1-4,4.25c-8,4.63-21.11,2.58-24.76-3A6.41,6.41,0,0,1,216.65,149.78Z" transform="translate(-27.62 -35.25)"/><path class="cls-13" d="M242.46,146c-6,3.63-17,3.42-22.71-.87-1.73-1.31-3-3-3-5.13a6.55,6.55,0,0,1,.87-3.21,9,9,0,0,1,3.5-3.13c6.94-3.91,17.44-3.1,22.69.88C248.52,138.15,247.65,143,242.46,146Z" transform="translate(-27.62 -35.25)"/><path class="cls-14" d="M246.89,150.07a5.51,5.51,0,0,1-.18.71.74.74,0,0,1-.05.23.53.53,0,0,0-.06.2s0,0,0,.09-.06.09-.08.08,0-7.77,0-8a4,4,0,0,1,.18-.88.78.78,0,0,1,.06-.23c0-.07.07-.15.06-.2s0,0,0-.08S246.89,141.17,246.89,150.07Z" transform="translate(-27.62 -35.25)"/><path class="cls-14" d="M244.61,153.67c-.09-.63,0-1.87,0-2.45,0-6.54-.18-5.12.82-6.35.1-.13.22-.3.3-.3.29,0,.09,2.11.14,2.71,0,.24,0,2.81,0,3.68a5.14,5.14,0,0,1-.12,1.83,5.38,5.38,0,0,1-.7.84C244.81,153.94,244.69,154.09,244.61,153.67Z" transform="translate(-27.62 -35.25)"/><path class="cls-14" d="M242.48,155.62c-.57.32-.9.65-1,.12s0-.86,0-3,.06-2.63,0-3.35c-.12-1.54.07-1.62.95-2.08.37-.21.69-.46.85-.39s.15,1,.14,1.54c0,.86,0,2.41,0,3.4,0,.56,0,1.13,0,1.69a7.48,7.48,0,0,1,0,1C243.4,155.19,243.07,155.3,242.48,155.62Z" transform="translate(-27.62 -35.25)"/><path class="cls-14" d="M237.4,150.81c0-.25,0-.5,0-.75a2.15,2.15,0,0,1,0-.44.76.76,0,0,1,.41-.49,2,2,0,0,1,.42-.12c.6-.15,1.19-.48,1.46-.3s.17.85.14,1.59c0,.12,0,3.37,0,3.49,0,.5,0,1,0,1.53a6.44,6.44,0,0,0,0,.76.82.82,0,0,1-.14.72,1.06,1.06,0,0,1-.68.32c-.79.19-1.49.67-1.61,0,0-.14,0-4.49,0-4.81C237.42,151.84,237.38,151.32,237.4,150.81Z" transform="translate(-27.62 -35.25)"/><path class="cls-14" d="M234.09,158.08c-.52,0-1.19.3-1.31-.32,0,0,0-6.4,0-6.45,0-1,0-1.05.06-1.19.21-.48,1.17-.37,1.34-.39s.9-.2,1.17.05.17.85.14,1.61c0,.36,0,6.09-.06,6.32a.79.79,0,0,1-.58.35A4.89,4.89,0,0,1,234.09,158.08Z" transform="translate(-27.62 -35.25)"/><path class="cls-15" d="M231.65,179.63v16.75c-7.48,0-16.8-2.13-22-7.51a10.23,10.23,0,0,1-3.18-7V165.11a8.84,8.84,0,0,0,.84,3.66c2.76,6,10.92,9.21,17.44,10.29A43.87,43.87,0,0,0,231.65,179.63Z" transform="translate(-27.62 -35.25)"/><path class="cls-14" d="M228.12,149.86a.5.5,0,0,1,.37-.21,2,2,0,0,1,.55,0c1,.18,1.74-.19,1.74,1,0,.6,0-.11,0,2.74,0,4.53,0,4.38-.06,4.53a.61.61,0,0,1-.39.22,1.63,1.63,0,0,1-.54,0c-.84-.15-1.6.09-1.72-.62-.06-.3,0-.54,0-3.11C228,149.86,228,150,228.12,149.86Z" transform="translate(-27.62 -35.25)"/><path class="cls-14" d="M225.26,157.35c-.68-.29-1.47-.16-1.58-.93,0-.19,0-4.57,0-4.79,0-.51-.07-1,0-1.54a4.74,4.74,0,0,0,0-.76.9.9,0,0,1,0-.43.46.46,0,0,1,.33-.27,1.18,1.18,0,0,1,.53.15c.38.17.89.22,1.14.34.58.27.46.77.44,1.9,0,.55,0,1.16,0,1.75s0,1.14,0,1.73a11.47,11.47,0,0,1,.05,1.55,3.61,3.61,0,0,0,0,.74,1.3,1.3,0,0,1,0,.44.44.44,0,0,1-.32.26A1,1,0,0,1,225.26,157.35Z" transform="translate(-27.62 -35.25)"/><path class="cls-14" d="M220.13,147c.13-.29.42-.08.67.09.52.35,1,.39,1.18.86a5,5,0,0,1,.07,1.58c0,.12,0,5.9,0,6a.61.61,0,0,1,0,.27c-.12.3-.42.07-.68-.09-.59-.4-1.16-.43-1.24-1.17C220.1,154.54,220.1,147.1,220.13,147Z" transform="translate(-27.62 -35.25)"/><path class="cls-14" d="M217.68,145.51a1.46,1.46,0,0,0,0-.48c0-.14-.08-.32,0-.4a.15.15,0,0,1,.19,0c.05,0,.09.1.14.14a.82.82,0,0,0,.17.2,2.55,2.55,0,0,1,.26.3c.39.44.51.49.47,1.65,0,.28,0,5.93,0,6.08a1.54,1.54,0,0,0,0,.49c0,.14.08.32,0,.41a.22.22,0,0,1-.18,0,.4.4,0,0,1-.13-.16,3.57,3.57,0,0,1-.45-.49c-.49-.57-.49-.71-.46-1.64C217.69,151.31,217.66,145.68,217.68,145.51Z" transform="translate(-27.62 -35.25)"/><path class="cls-14" d="M217,151.33a9,9,0,0,1-.32-1.55v-7.67c0-.38.14,0,.26.73a5,5,0,0,1,.15,1.59c-.13,4.63,0,3.6,0,5.23A8.07,8.07,0,0,1,217,151.33Z" transform="translate(-27.62 -35.25)"/><path class="cls-13" d="M206.51,157.6c0-6.51,4.39-11.72,10.15-14.71,0,.21,0,1.35,0,2.77,0,1.7,0,3.51,0,4.12a6.66,6.66,0,0,0,1,4.14c3.65,5.56,16.74,7.61,24.76,3a8.58,8.58,0,0,0,4-4.25c.61-1.43.37-1.91.43-9.75,5.61,2.82,9.88,8,10.09,14.19.88,12.25-24.43,20.11-41.84,11.48a17.4,17.4,0,0,1-6.54-5.13A10.11,10.11,0,0,1,206.51,157.6Z" transform="translate(-27.62 -35.25)"/><path class="cls-12" d="M209.69,188.87c5.16,5.38,14.48,7.5,22,7.51V179.63a43.87,43.87,0,0,1-6.86-.57c-6.52-1.08-14.68-4.25-17.44-10.29a8.84,8.84,0,0,1-.84-3.66V157.6a10.11,10.11,0,0,0,2.12,5.84,17.4,17.4,0,0,0,6.54,5.13C232,176.89,257,169.88,257,157.62v31.63c0,5.87-3.23,11.71-9.73,15.46-12.66,7.31-33.68,4.24-39.44-9a16.17,16.17,0,0,1-1.35-6.44v-7.38A10.23,10.23,0,0,0,209.69,188.87Z" transform="translate(-27.62 -35.25)"/><path class="cls-16" d="M257.05,183.34c3.3.23,6.13.37,8.95.63a39,39,0,0,1,11.87,3.13c4,1.75,6.91,4.77,9.5,8.13,1.65,2.14,1.33,4.4-.44,6.74a25.54,25.54,0,0,1-16.25,9.77A78.31,78.31,0,0,1,258.74,213c-6.87.19-13.75.15-20.61,0a44.26,44.26,0,0,1-15.81-2.85c-3.67-1.48-7.15-3.27-9.47-6.67a15.29,15.29,0,0,1-.88-2c5.46,2.07,10.54,3.27,16.21,2V171.92c8.43-1.26,16.14-3.63,22.46-9.18l0,0a2.57,2.57,0,0,0-2-4.41c-.93.1-1.84.21-2.76.24-4.89.16-9.78,1.11-14.68,1.21a4.72,4.72,0,0,1-1.23-.39c0-3.42.06-7.24.06-10.82,5.56.52,16.21-1.68,16.85-8.43l.06,2.79,2,1.17A16.3,16.3,0,0,1,257,158.2C257.11,165.41,257.05,170.94,257.05,183.34Z" transform="translate(-27.62 -35.25)"/><path class="cls-4" d="M180.51,143.59c0,3.69.05,7.32.08,11,.61,5.33-3.22,12.38-8,15.15l-14.41,8.32a32,32,0,0,0-10.27,9.45l-4,5.78V162.94c0-5.16,3.62-11.43,8.09-14L172.57,137C177.51,134.18,181.48,137,180.51,143.59Z" transform="translate(-27.62 -35.25)"/><path class="cls-3" d="M178.2,136.42c-1.46-.79-3.44-.65-5.63.61L152,148.92c-4.47,2.59-8.09,8.86-8.09,14V193.3l-8.44-4.87V158.06c0-5.15,3.62-11.43,8.09-14l20.59-11.89c2.24-1.29,4.26-1.41,5.72-.57Z" transform="translate(-27.62 -35.25)"/><path class="cls-17" d="M168.6,144.61c-.73.42-1.14,1.57-.58,1.79l.42.18L166.92,149l2.54,1.07,1.52-2.39.42.18c.5.23,1.28-.54,1.43-1.2.08-.34,0-.6-.23-.69l-3.39-1.43a.68.68,0,0,0-.61.1Zm-5.06,5.47c-.75.43-1.13,1.56-.6,1.79l.25.1-8.82,13.91a5.82,5.82,0,0,0-1,3v2.83L151.94,174c-.47.71-.28,1.42.37,1.21a1.6,1.6,0,0,0,.82-.7l1.45-2.28,2.83-1.64a7.2,7.2,0,0,0,2.39-2.37l8.81-13.9.25.1a.71.71,0,0,0,.6-.09c.76-.44,1.12-1.57.6-1.79L164.14,150a.71.71,0,0,0-.6.1Zm.84,2.4,2.5,1.06c.31.13.31.61,0,1.09s-.79.76-1.09.63l-.85-.36c-.31-.13-.8.16-1.11.64L162,158.4l.42.18c.33.14.33.67,0,1.19s-.86.83-1.19.69l-.43-.18-1.34,2.12.42.18c.34.14.34.67,0,1.2s-.86.83-1.19.69l-.43-.18-1.9,3c-.35.55-.93.83-1.2.56s-.15-.62.11-1Z" transform="translate(-27.62 -35.25)"/><ellipse class="cls-16" cx="120.57" cy="192.31" rx="23.12" ry="13.35"/><path class="cls-4" d="M168.64,218.45c0-3.69,0,1.7,0,5.37A8.06,8.06,0,0,1,166,229.5c-4.45,4.37-12.49,5.86-18.8,5.47h0a21.53,21.53,0,0,0,5.5-6.74h0c4.65-.48,10-2.1,13.31-5.35a.22.22,0,0,1,.17-.09h0c.07,0,.12.1.12.26v.54A7.94,7.94,0,0,0,168.64,218.45Z" transform="translate(-27.62 -35.25)"/><path class="cls-4" d="M153.09,215.6l-.51-1,16.07,2.48s0,1.3,0,1.35l-15.31-2.37q-.11-.24-.24-.48Z" transform="translate(-27.62 -35.25)"/><path class="cls-3" d="M153.33,216.08l15.31,2.37a7.94,7.94,0,0,1-2.38,5.14v-.54c0-.16,0-.24-.12-.26s1.23.2-11.69-1.8A11.9,11.9,0,0,0,153.33,216.08Z" transform="translate(-27.62 -35.25)"/><path class="cls-3" d="M154.45,221l11.69,1.8a.22.22,0,0,0-.17.09c-3.31,3.25-8.66,4.87-13.31,5.35h0A15.46,15.46,0,0,0,154.45,221Z" transform="translate(-27.62 -35.25)"/><path class="cls-7" d="M121.16,234c9.41,5.32,24.21-.21,29.27-10.75a13.86,13.86,0,0,0,.75-11.14c-.16-.42,0-.12.2.29-.1-.23-.21-.45-.33-.68h0c1.94,3.69,1.14,2.16,2,3.89h0c3,5.71.69,12.61-3.82,17.4-9.15,9.71-25.43,10.38-30.54.69l-2-3.77a12,12,0,0,0,4.38,4.53l-.21-.38c0-.08,0-.13,0-.14h0S121,233.93,121.16,234Z" transform="translate(-27.62 -35.25)"/><path class="cls-5" d="M120.91,233.92c31.84-23.22,30.1-22,30.2-22a1.57,1.57,0,0,0,.07.2,13.86,13.86,0,0,1-.75,11.14c-5.08,10.58-19.9,16-29.27,10.75C121,233.93,121,233.9,120.91,233.92Z" transform="translate(-27.62 -35.25)"/><path class="cls-7" d="M120.91,234.07l.21.38a11.87,11.87,0,0,1-4.77-5.34l30.26-22.06a12,12,0,0,1,4.77,5.34l-.2-.38c0-.08-.06-.11-.07-.11s-30.08,22-30.21,22S120.87,234,120.91,234.07Z" transform="translate(-27.62 -35.25)"/><path class="cls-3" d="M162.72,209.13c3.08,1.72,5.88,4.48,5.93,8l-16.07-2.48-1.53-2.91h0a12,12,0,0,0-4.44-4.66,1.88,1.88,0,0,0-.71-.9h0C151.52,205.58,157.91,206.45,162.72,209.13Z" transform="translate(-27.62 -35.25)"/><path class="cls-7" d="M145.83,206.11a1.88,1.88,0,0,1,.78.94l-30.26,22.06a9.55,9.55,0,0,1-.55-1.11Z" transform="translate(-27.62 -35.25)"/><path class="cls-5" d="M145.83,206.11,115.8,228a13.86,13.86,0,0,1,.76-11.14C121.64,206.28,136.46,200.81,145.83,206.11Z" transform="translate(-27.62 -35.25)"/><g class="cls-10"><path class="cls-11" d="M118.17,232.06a15.33,15.33,0,0,0,2,1.74c.49.39.76.53.75.47s0-.22,0-.34a6.47,6.47,0,0,1,.62.26,16.19,16.19,0,0,0,6.19,1.76,20.43,20.43,0,0,0,8.69-1c9.75-3,17.77-12.83,15.14-21.8,0-.07-.51-1.33-.49-1.42,2.09,4,2.71,4.84,3.18,7.13,1.14.86,2.22,1.7,3.35,2.55l0,0c.83.32,1.09,1.11,1.48,1.79.11.2.24.4.36.59a1.12,1.12,0,0,1,.13.24,4.82,4.82,0,0,1,.25,2c0,.17,0,.28,0,.53a16.65,16.65,0,0,0,6.14-3.72c.43-.32.25.31.28.73a3.56,3.56,0,0,0,.43-.48,8.25,8.25,0,0,0,1.94-4.06,4.37,4.37,0,0,1,0-.62c0,6.38.07,6.41-.47,7.8-1.88,4.85-8.44,7.57-13.64,8.36-1.05.16-2.11.32-3.17.39s-3.47,0-3.69,0c-1.13-.12-1,.82-4.81,2.81a23.84,23.84,0,0,1-9.63,2.79,17.74,17.74,0,0,1-8.42-1.4,12.56,12.56,0,0,1-4.38-3.12,11.57,11.57,0,0,1-1.35-1.76c-.46-.88-1.79-3.4-2.26-4.28C116.85,230,118.14,232.09,118.17,232.06Z" transform="translate(-27.62 -35.25)"/><path class="cls-11" d="M146.42,206.5c.13.22.23.41.36.64l-30.22,22c-.26-.12-.31-.36-.42-.55C116.43,228.3,145.71,206.91,146.42,206.5Z" transform="translate(-27.62 -35.25)"/></g><path class="cls-18" d="M370.38,152.3c-.05-5.24-.2-10.42-.1-15.7a48,48,0,0,0-.1-6.58,25.27,25.27,0,0,0-8.87-15.66,38.06,38.06,0,0,0-5.59-3.44c-3.09-1.74-6.08-3.54-9.07-5.28-10.3-6-20.55-11.63-34.2-19.64-24.92-14.83-23.13-12.83-29.61-17-4.48-2.9-10.47-7.58-14.86-4.39-3.11,2.23-2.84,6.92-2.74,10.37.06,1.6-.58,196-.45,198.76a23.23,23.23,0,0,0,2.5,8.87,26.5,26.5,0,0,0,5.53,7.38,43.22,43.22,0,0,0,7.93,4.94c9.61,5.21-14.11-7.81,66.86,38.68.46.26,12.35,7.11,12.8,7.28,5.49,2.33,9.47-1.09,9.47-7.18,0-.11.32-155.7.35-157.73C370.28,168.1,370.48,160.18,370.38,152.3ZM307.07,87.89c0-.4.06-.73.4-.9a.63.63,0,0,1,.6,0,.54.54,0,0,1,.34.15c2.95,1.77,18.72,10.69,19.1,11.07a2.33,2.33,0,0,1,.8,1.2,5.5,5.5,0,0,1,.19,2.39.85.85,0,0,1-.05.35c-.05.15-.05.25-.14.3a.39.39,0,0,1-.2.2c-.66.33.48.77-19.7-10.87a1.72,1.72,0,0,1-.34-.3,1.7,1.7,0,0,1-.6-.75C307,89.91,307.07,89.43,307.07,87.89Z" transform="translate(-27.62 -35.25)"/><path class="cls-19" d="M308.66,87.24c20,11.55,19.19,10.74,19.65,12.12a.81.81,0,0,1,.15.45,6.76,6.76,0,0,1,.05,1.64c-20.4-11.8-18.55-10.67-19-11.12a2.9,2.9,0,0,1-.85-1.94Z" transform="translate(-27.62 -35.25)"/><path class="cls-20" d="M308.07,86.94a.54.54,0,0,1,.35.15l.24.15a5.87,5.87,0,0,0,.1,1.85,3.17,3.17,0,0,0,1.3,1.69l18.45,10.67a1.86,1.86,0,0,1-.05.65c0,.15,0,.25-.15.3a.39.39,0,0,1-.2.2c-.25.12-.16.1-.6.1l-.35-.15c-19.15-11-19.4-11-19.69-11.87-.53-.78-.4-1.38-.4-2.79a1.43,1.43,0,0,1,.15-.7A.72.72,0,0,1,308.07,86.94Z" transform="translate(-27.62 -35.25)"/><path class="cls-7" d="M276.31,62.07c-3.77-2.21-7.14-2.25-9.57-1,14.75-8.31,14.46-8.64,16.45-8.87,2.94-.34,4.84.44,7.28,1.74l82.95,47.91c6.94,3.9,13.61,14.37,13.61,23.63-.48,215.52-.37,202.1-.6,204.14-.35,2.35-1.76,5.1-3.83,6.29-17.82,10.15-13.7,8.06-12.87,7.22,1.95-1.89,2.7-5.23,2.75-7.92l.39-201.6c0-8.46-5.73-19-13.61-23.63Z" transform="translate(-27.62 -35.25)"/><path class="cls-5" d="M359.26,110,276.31,62.07c-5.91-3.46-9.52-1-9.62-1-2.88,1.28-4,5.53-4,8.83-.5,244.06-.4,194.84-.4,201.6,0,8.38,5.54,18.81,13.56,23.63l83,47.9c7,4.12,13.48,1.35,13.66-7.87l.39-201.6C372.87,125.19,367.18,114.61,359.26,110Zm11,66c-.14,10.25.08-22.37-.35,157.73,0,6.17-4,9.47-9.47,7.18-1.06-.44-66.71-38.35-67.7-38.93-4-2.4-7.82-4.79-12-7a43,43,0,0,1-7.93-4.94,26.21,26.21,0,0,1-5.53-7.38,23.23,23.23,0,0,1-2.5-8.87c-.12-2.5,0-1.43,0-10.3h0c0-117.62.39-157.54.35-166.12C265,79,265.41,80,265.24,75c-.08-2.8-.28-5.85,1.05-8.37a5.49,5.49,0,0,1,3.49-2.85c3.93-1.31,9.59,3,13.06,5.24,3.64,2.34,7.58,4.34,11.42,6.43,9.1,4.92,15.34,9.13,36.39,21,22.26,12.69,19.53,11.33,25.07,14.45,3.88,2.09,6.44,3.57,9.28,7.18a27.82,27.82,0,0,1,3.89,6.83c1.66,4.58,1.5,7,1.39,11.67-.1,5.28.05,10.47.1,15.7C370.48,160.18,370.28,168.1,370.23,176Z" transform="translate(-27.62 -35.25)"/><path class="cls-16" d="M469,291.77v33c-17.56,0-35.13.12-52.69-.1a29.12,29.12,0,0,0-15.86,4.36c-2.53,1.49-28,16.24-28.5,16.49-3.53,1.62-6.81.89-10.17-1.1,13.5,4.18,10.69-17.52,10.69-17.52,0-16.71.36-192.7.36-193.31,0,0,10.26,1.71,12.76-16,1.95,2.84,1.4,21.12,1.4,21.12l-.3,129.42s18.66.38,28.47.22A46,46,0,0,1,439.7,275C439.76,275,452.68,282.34,469,291.77Z" transform="translate(-27.62 -35.25)"/><path class="cls-4" d="M432.72,183.77,423,189.4c1.64-1,2.65-3.11,2.65-6.05V166.91c0-6-4.24-13.38-9.47-16.4L392,136.59c-2.56-1.48-4.88-1.65-6.59-.72l9.78-5.65c1.71-1,4.08-.84,6.69.67L426,144.81c5.23,3,9.47,10.36,9.47,16.4v16.43C435.49,180.66,434.43,182.78,432.72,183.77Z" transform="translate(-27.62 -35.25)"/><path class="cls-3" d="M425.53,168.27c0,4.45,0,8.83,0,13.28.92,7.42-3.7,10.53-9.35,7.26L395.61,177a9.73,9.73,0,0,0-7.55-.93l-5.5,1.57V142.06c0-6,4.23-8.49,9.47-5.47l24.11,13.92C421.77,153.76,426.25,162,425.53,168.27Z" transform="translate(-27.62 -35.25)"/><path class="cls-21" d="M397.07,151.12c-.7-.41-1.27-.17-1.27.54v11.47a2.63,2.63,0,0,0,1.27,2l14,8.1c.7.41,1.27.16,1.27-.54V162.5a2.66,2.66,0,0,0-1.27-2L401.66,155l-.39-.88a2.85,2.85,0,0,0-1.09-1.25Zm7,7.87a7.93,7.93,0,0,1,3.82,6c0,2.12-1.71,2.84-3.82,1.62a7.92,7.92,0,0,1-3.83-6c0-2.11,1.71-2.84,3.83-1.62Zm0,1.28c-.36-.21-.64-.09-.64.26v1.28l-1.28-.74c-.35-.2-.63-.08-.63.27a1.32,1.32,0,0,0,.63,1l1.28.73v1.28a1.33,1.33,0,0,0,.64,1c.35.2.63.08.63-.27v-1.28l1.28.74c.35.2.64.08.64-.27a1.34,1.34,0,0,0-.64-1l-1.28-.73v-1.28a1.31,1.31,0,0,0-.63-1Z" transform="translate(-27.62 -35.25)"/><path class="cls-22" d="M292.92,220.18l-14.76-8.51a6.8,6.8,0,0,1-3.27-5.17h0c0-1.81,1.46-2.43,3.27-1.38l14.76,8.52a6.79,6.79,0,0,1,3.27,5.16h0C296.19,220.61,294.72,221.23,292.92,220.18Z" transform="translate(-27.62 -35.25)"/><path class="cls-22" d="M292.92,229.38l-14.76-8.51a6.8,6.8,0,0,1-3.27-5.17h0c0-1.81,1.46-2.43,3.27-1.38l14.76,8.52a6.79,6.79,0,0,1,3.27,5.16h0C296.19,229.81,294.72,230.43,292.92,229.38Z" transform="translate(-27.62 -35.25)"/><path class="cls-22" d="M353.06,240l-71.62-41.35c-3.72-2.15-6.74-6.91-6.74-10.63h0c0-3.73,3-5,6.74-2.85l71.62,41.34c3.72,2.15,6.74,6.92,6.74,10.64h0C359.8,240.9,356.78,242.18,353.06,240Z" transform="translate(-27.62 -35.25)"/><path class="cls-22" d="M292.92,265.94l-14.76-8.52a6.8,6.8,0,0,1-3.27-5.17h0c0-1.81,1.46-2.42,3.27-1.38l14.76,8.52a6.79,6.79,0,0,1,3.27,5.16h0C296.19,266.36,294.72,267,292.92,265.94Z" transform="translate(-27.62 -35.25)"/><path class="cls-22" d="M292.92,275.14l-14.76-8.52a6.8,6.8,0,0,1-3.27-5.17h0c0-1.8,1.46-2.42,3.27-1.38l14.76,8.52a6.79,6.79,0,0,1,3.27,5.16h0C296.19,275.56,294.72,276.18,292.92,275.14Z" transform="translate(-27.62 -35.25)"/><path class="cls-22" d="M353.06,285.78l-71.62-41.34c-3.72-2.15-6.74-6.92-6.74-10.64h0c0-3.72,3-5,6.74-2.85l71.62,41.35c3.72,2.15,6.74,6.91,6.74,10.63h0C359.8,286.66,356.78,287.93,353.06,285.78Z" transform="translate(-27.62 -35.25)"/><path class="cls-5" d="M348.53,390.28c-11-1.7-10.67-1.56-11-1.82a1.36,1.36,0,0,1-.37-.71,10.54,10.54,0,0,1-.39-3.43c0-5.47,1.58-11.83,2.7-14a6.84,6.84,0,0,1,.64-1c.22-.29.43-.51.79-.47h0l10.92,1.69a10,10,0,1,1-3.31,19.76Z" transform="translate(-27.62 -35.25)"/><path class="cls-7" d="M330.24,367.17l10.68,1.66h0c-.36,0-.57.18-.79.47a6.84,6.84,0,0,0-.64,1c-1.12,2.17-2.7,8.53-2.7,14a10.54,10.54,0,0,0,.39,3.43,1.36,1.36,0,0,0,.37.71.83.83,0,0,0,.31.16S327,387,326.94,386.94a10,10,0,1,1,3.3-19.77Z" transform="translate(-27.62 -35.25)"/><path class="cls-16" d="M358.7,375c1.61,1.72,2,4.92,1.46,7.6a7,7,0,0,0,.94.36c5.8,1.47,9.09,5.4,4.1,8.75a14,14,0,0,1-5.49,2,24.81,24.81,0,0,1-8.55-.15c-6.24-1-16.49-2.44-22.9-3.71a9.13,9.13,0,0,1-5-2.67,2.15,2.15,0,0,1-.59-.74,9,9,0,0,0-1.91-3.15c.38.05.75.13,1.13.15a5.81,5.81,0,0,0,1.91,0c1.79-.57,3.52-.07,5.26.18,16.8,2.47,18.1,3.1,19.39,2.63a18.31,18.31,0,0,0,9-6.87A6.59,6.59,0,0,0,358.7,375Z" transform="translate(-27.62 -35.25)"/><path class="cls-8" d="M372.59,379.18h0a.52.52,0,0,1,.37,0,1.16,1.16,0,0,1,.52.46,6.44,6.44,0,0,1,.64,1c1.11,2.16,2.68,8.51,2.68,14a10.42,10.42,0,0,1-.38,3.41,1.45,1.45,0,0,1-.36.72.67.67,0,0,1-.43.19h0L365,400.63a10,10,0,1,1-3.23-19.78C361.82,380.83,361.63,380.88,372.59,379.18Z" transform="translate(-27.62 -35.25)"/><path class="cls-9" d="M386.53,397.29,375.63,399h0a.67.67,0,0,0,.43-.19,1.45,1.45,0,0,0,.36-.72,10.42,10.42,0,0,0,.38-3.41c0-5.45-1.57-11.8-2.68-14a6.44,6.44,0,0,0-.64-1,1.16,1.16,0,0,0-.52-.46.52.52,0,0,0-.37,0h0c16.09-2.48,9.27-1.49,11-1.7a10,10,0,1,1,2.94,19.81Z" transform="translate(-27.62 -35.25)"/><path class="cls-16" d="M393.73,382.34a10.21,10.21,0,0,1,1.11,7.49c2.16.64,4.17,1.13,5.92,2.65,2,1.75,2,4,0,5.68a13.12,13.12,0,0,1-6.59,2.67c-26.34,4.12-22.2,3.66-28.62,3.44-.53,0-6.49-.75-7.89-4a5.55,5.55,0,0,0-2.12-2.86c.33-.13.45-.22.54-.2,2.33.56,4.47-.13,6.57-1a5.75,5.75,0,0,0,1.21-.62,9.85,9.85,0,0,1,4.81-1.61c7.81-1.16,16.66-2.63,17.57-2.7a4.38,4.38,0,0,0,2.66-1.18C392.85,386.69,392.83,385.2,393.73,382.34Z" transform="translate(-27.62 -35.25)"/><path class="cls-4" d="M330.48,412.92c-11.33-6.54-7.12-4.13-8.1-4.68-1.59-1-2.08-3.15-1.95-5.18.47-7,7.63-14.51,12-12.16l.13.07,7.73,4.46a10,10,0,1,1-9.8,17.49Z" transform="translate(-27.62 -35.25)"/><path class="cls-3" d="M314.49,403.69a10,10,0,1,1,10.32-17.18c2.53,1.46,5.08,2.92,7.61,4.39a4.12,4.12,0,0,0-3.08-.24c-4.15,1.09-8.55,7-8.91,12.4-.13,2,.36,4.2,1.95,5.18Z" transform="translate(-27.62 -35.25)"/><path class="cls-16" d="M312.35,401.52a8.54,8.54,0,0,1,.92.41c4.68,2.68,9.39,5.31,14,8.11a6.27,6.27,0,0,0,5.18.68,18.25,18.25,0,0,0,10-6.9,8.73,8.73,0,0,0,1.63-4.45,4.37,4.37,0,0,1,.55.68c2,4.48,0,5.44,1.58,6.32,4.08,2.22,8.6,4.61,5.65,8.13a8,8,0,0,1-3.6,2.35,20.26,20.26,0,0,1-14.6-.21,23.19,23.19,0,0,1-2.87-1.52c-15.75-9.06-14.18-8.15-16.09-9.59-1.1-.83-1-2.88-2.68-3.64Z" transform="translate(-27.62 -35.25)"/><path class="cls-5" d="M351.35,406.14c2.55-2.75,6.91-2,10.11.15s5.8,6,5.8,9.66a5.81,5.81,0,0,1-1.58,4.18h0L360,425.79h0a10,10,0,1,1-14.14-14.2l5.46-5.46Z" transform="translate(-27.62 -35.25)"/><path class="cls-7" d="M357.08,400.39a10,10,0,1,1,14.24,14.1l-5.64,5.65h0a5.81,5.81,0,0,0,1.58-4.18c0-3.67-2.53-7.49-5.8-9.66s-7.56-2.91-10.11-.15h0C353.26,404.22,355.17,402.3,357.08,400.39Z" transform="translate(-27.62 -35.25)"/><path class="cls-16" d="M345.12,425c3.93.88,7-.47,9.9-2.36a16.77,16.77,0,0,0,5.23-5.24,5.66,5.66,0,0,1,.86-1c3.26-3.28,6.51-6.57,9.81-9.79a4.91,4.91,0,0,0,1.66-3.71,6,6,0,0,1,.12-.79,9.8,9.8,0,0,1,1.33,7.66c.32.11.6.23.89.31a11.26,11.26,0,0,1,5.28,2.62c1.61,1.62,1.68,3.49,0,5.1-3.84,3.79-7.63,7.62-11.45,11.43a9,9,0,0,1-4,2.24,20.09,20.09,0,0,1-14.18-.63A15.56,15.56,0,0,1,348,429a1,1,0,0,1-.35-.4,15.79,15.79,0,0,0-.91-2A12.19,12.19,0,0,0,345.12,425Z" transform="translate(-27.62 -35.25)"/><path class="cls-22" d="M349.29,214.52l-41-23.65c-4.49-2.59-8.13-8.34-8.13-12.83V123.32c0-4.49,3.64-6,8.13-3.44l41,23.66c4.5,2.59,8.14,8.34,8.14,12.83v54.72C357.43,215.58,353.79,217.12,349.29,214.52Z" transform="translate(-27.62 -35.25)"/><path class="cls-22" d="M287.74,156.68l-5-2.89c-4.26-2.46-7.72-7.92-7.72-12.18V131.7c0-4.26,3.46-5.73,7.72-3.26l5,2.88c4.27,2.46,7.72,7.92,7.72,12.19v9.9C295.46,157.68,292,159.14,287.74,156.68Z" transform="translate(-27.62 -35.25)"/><ellipse class="cls-23" cx="326.17" cy="163.05" rx="8.9" ry="15.72" transform="translate(-60.13 193.56) rotate(-36.95)"/><polygon class="cls-4" points="280.75 236.01 284.86 318.51 266.51 322.95 266.51 238.06 280.75 236.01"/><path class="cls-3" d="M308.37,271.26l-14.24,2.05-3.56,8.22L267,267.94l.3-1.53,22.11,12.77c1-2.29,2-4.57,3-6.86l11.87-1.72-8.16-4.7.86-1.22Z" transform="translate(-27.62 -35.25)"/><path class="cls-13" d="M296.13,265.9l8.16,4.7-11.87,1.72-.54-.37Z" transform="translate(-27.62 -35.25)"/><path class="cls-7" d="M277.25,203c7.68,4.49,15.53,14.11,17.63,21.79,8.72,31.9,8.08,29.41,8.08,29.56,1.07,3.85-.93,8.68-3.67,11.7l-2.3-1.33,2.06-2.94c.83-1.18.44-3.13-.22-4.52h0a5,5,0,0,0-.08-1.72c0-.19-8.08-29.42-8.08-29.56-1.71-6.29-8.64-15.1-15.6-19.18-1.47-.87-1.58-.92-4.35-2.54-1.51-.89-3.8-2-5.54-1.91-.95,0-1.28.36-1.48.88a6.78,6.78,0,0,0,.17,3.62l2.25,8.37a19.1,19.1,0,0,0-4.29-3.36h0l-1-.58a0,0,0,0,0,0,0l-.32-.19c-.27-1-.54-2-.82-3,0-.17-1.84-5.63,1.47-8.6,3.13-2.8,8.13-1.1,11.77,1l4.35,2.55Z" transform="translate(-27.62 -35.25)"/><polygon class="cls-24" points="266.51 238.06 266.51 322.95 258.83 333.54 262.95 246.28 266.51 238.06"/><path class="cls-13" d="M292.42,272.32c-1,2.29-2,4.57-3,6.86-.62-.37-1.25-.73-1.88-1.09l4.32-6.14Z" transform="translate(-27.62 -35.25)"/><path class="cls-25" d="M287.66,260.82c.16,3-1.54,5-4.37,4-3.21-1.09-6.33-5.6-6.53-9.57-.16-3.05,1.53-5,4.37-4C284.35,252.34,287.46,256.86,287.66,260.82Z" transform="translate(-27.62 -35.25)"/><path class="cls-26" d="M278.75,249.23l1.63-.94c4.48-2.54,12,6.06,11.26,12.78a4.25,4.25,0,0,1-2,3.49h0l-1.52.88a4.33,4.33,0,0,0,1.81-3.38C290.64,255.35,283.26,246.84,278.75,249.23Z" transform="translate(-27.62 -35.25)"/><path class="cls-25" d="M276.65,266a11.63,11.63,0,0,1,2.72,7.4l-10.91-6.3C268.21,261.92,272.87,261.28,276.65,266Z" transform="translate(-27.62 -35.25)"/><path class="cls-26" d="M283.52,265.59c-6.52-2.68-9.88-13.8-4.77-16.36,4.5-2.38,11.89,6.12,11.19,12.83C289.54,265.8,286.47,266.8,283.52,265.59Zm-6.76-10.31c.2,4,3.32,8.48,6.53,9.57,2.83,1,4.53-1,4.37-4-.2-4-3.31-8.48-6.53-9.58C278.29,250.27,276.6,252.23,276.76,255.28Z" transform="translate(-27.62 -35.25)"/><path class="cls-26" d="M273.24,236.06c1.63,2.46,2.85,5.81,2.38,8.66a4,4,0,0,1-4.68,3.57h0l.21-1a2.79,2.79,0,0,0,1.82-1.58c.81-1.72.38-4.11-.33-5.9h0A30,30,0,0,0,273.24,236.06Z" transform="translate(-27.62 -35.25)"/><path class="cls-26" d="M275.36,246.82h0l-1.5.86a4.09,4.09,0,0,0,1.76-3c.47-2.85-.75-6.2-2.38-8.66h0a24.93,24.93,0,0,0,.1-3c2.43,2.56,4.4,6.74,4,10.28A4.21,4.21,0,0,1,275.36,246.82Z" transform="translate(-27.62 -35.25)"/><path class="cls-8" d="M274.9,315.27q-.3,6.28-.59,12.55l-14.44-8.33-.81,17.13-10.57-6.1.81-17.14-14.44-8.33.6-12.55,14.43,8.34.81-17.14,10.57,6.1-.81,17.14Z" transform="translate(-27.62 -35.25)"/><path class="cls-27" d="M268.44,276c.53-.26,1.05-.53,1.57-.8a2.48,2.48,0,0,1,1.66-.13c2.76.66,5.38,5.47,4.24,8.26a2.4,2.4,0,0,1-1.07,1.27l-1.57.81h0c2.67-1.39,1.05-7.24-2.22-9.13a2.72,2.72,0,0,0-2.61-.26Z" transform="translate(-27.62 -35.25)"/><path class="cls-13" d="M273.34,281.87a2.68,2.68,0,0,1-.24,1.26h0a2.76,2.76,0,0,1-1.13-.51Z" transform="translate(-27.62 -35.25)"/><path class="cls-25" d="M272.64,239.78c.71,1.79,1.14,4.18.33,5.9a2.79,2.79,0,0,1-1.82,1.58c.49-2.5,1-5,1.48-7.48Z" transform="translate(-27.62 -35.25)"/><path class="cls-27" d="M273.1,283.13c-.41.85-1.43,1.2-2.67.31l1.54-.82A2.76,2.76,0,0,0,273.1,283.13Z" transform="translate(-27.62 -35.25)"/><path class="cls-28" d="M269.73,277.42c-1,.12-1.42,1.13-1.36,2.16l-1.1.6a6.37,6.37,0,0,1-.15-1.71c.14-2.42,1.92-3.37,3.93-2.22,3.12,1.79,4.51,6.77,2.83,8.65-1.24,1.41-3.23.55-4.56-.86l1.11-.6c1.23.89,2.26.55,2.67-.31h0C274.14,281,271.76,277.18,269.73,277.42Z" transform="translate(-27.62 -35.25)"/><path class="cls-26" d="M272.07,260.1a3.73,3.73,0,0,1,2.19-.42c4.3.38,9.25,7.07,9.13,12.51a5.82,5.82,0,0,1-.81,3l-1.05-.6c1.21-5.43-4.17-13.51-9-13.95a3.71,3.71,0,0,0-2.18.41Z" transform="translate(-27.62 -35.25)"/><path class="cls-26" d="M272,225.3c-1-3.07-1.88-4.2-1.14-3.25,29.38,36.55,27.33,33.84,28,35.17s1.06,3.33.22,4.52c-3.48,5-2.88,4.11-11.49,16.35l-.43-.25,10.92-15.52c1.12-1.59.07-4.53-1.28-6.21Z" transform="translate(-27.62 -35.25)"/><path class="cls-13" d="M269.94,278.73a2.7,2.7,0,0,1,.24-1.3,2.75,2.75,0,0,1,1.16.55Z" transform="translate(-27.62 -35.25)"/><path class="cls-25" d="M269,234.68h0c-.1,2.31-.48,3.57-2,11.25h0c-3.48-2.76-5.07-7.62-4.26-10.4C263.43,233,266,232.36,269,234.68Z" transform="translate(-27.62 -35.25)"/><path class="cls-27" d="M269.94,278.73l-1.57.85c-.07-1.3.57-2.33,1.81-2.15A2.7,2.7,0,0,0,269.94,278.73Z" transform="translate(-27.62 -35.25)"/><path class="cls-26" d="M273.12,263.15c-2.8-1.15-4.82.56-4.66,3.91l-.45-.26c-.19-2.23.44-4.63,2.37-5.72h0a3.71,3.71,0,0,1,2.18-.41c4.79.44,10.17,8.53,9,13.95l-2.16-1.25C279.57,269.47,276.54,264.54,273.12,263.15Z" transform="translate(-27.62 -35.25)"/><path class="cls-29" d="M276.27,254.52c.23,6.94,7.52,13.81,11.86,10.92l1.52-.88h0a4.25,4.25,0,0,0,2-3.49c.71-6.83-6.86-15.28-11.26-12.78l-1.69,1A5.6,5.6,0,0,0,276.27,254.52ZM268,266.8l-.68-.39q1.82-9.06,3.61-18.12h0c1.89.21,2.77-.51,4.42-1.46h0c3.58-1.86,2.21-9.31-2-13.76A28.13,28.13,0,0,0,272,225.3l24.76,30.81c1.35,1.67,2.4,4.62,1.28,6.21l-10.92,15.52-4.55-2.63a5.82,5.82,0,0,0,.81-3c.13-5.52-4.89-12.13-9.13-12.51a3.72,3.72,0,0,0-2.19.42l-1.68,1h0C268.45,262.16,267.82,264.56,268,266.8Z" transform="translate(-27.62 -35.25)"/><path class="cls-13" d="M236.22,261.93l0,0a3.18,3.18,0,0,1-1.3.4c-.44,0-.7-.14-.91-.68a5.46,5.46,0,0,1,0-2.81q.93-4.49,1.84-9L263,265.63c-2.4,12.07-2.14,10.57-2.14,10.71-1.34,6.79,3.34,10.44,8.4,7.72h0l0,0c1,1.09,2.62,2,3.95,1.34h0l1.57-.81a2.4,2.4,0,0,0,1.07-1.27c1.14-2.8-1.48-7.61-4.24-8.26a2.48,2.48,0,0,0-1.66.13c-.52.27-1,.54-1.57.8h0a2.8,2.8,0,0,0-1.32,2.48,6.12,6.12,0,0,0,.15,1.71h0c-.84.42-1.28.47-1.57.36s-.58-.94-.63-1.38c-.14-1.26,0-1.24,2-11.22l23.54,13.59-4.11,87.26-69-39.83,4.12-87.26,10.19,5.88h0q-1.07,5.23-2.14,10.47c-1.37,6.74,3.32,10.46,8.47,7.83h0l.11-.05c1.41,1.52,2.95,1.95,4,1.41h0c.15-.07,1.43-.74,1.57-.8a2.81,2.81,0,0,0,1.33-2.54c.15-3.28-2.54-6.8-4.86-7.07a2.37,2.37,0,0,0-1.29.2l-1.57.81C236.07,258.52,235.91,260.41,236.22,261.93Zm38.09,65.89q.3-6.27.59-12.55l-14.44-8.33.81-17.14-10.57-6.1-.81,17.14-14.43-8.34-.6,12.55,14.44,8.33-.81,17.14,10.57,6.1.81-17.13Z" transform="translate(-27.62 -35.25)"/><path class="cls-26" d="M268.89,231.87a4.63,4.63,0,0,0-4.47-.35l1.65-1a3.93,3.93,0,0,1,2.62-.38c.08.56.15,1.12.2,1.68Z" transform="translate(-27.62 -35.25)"/><path class="cls-29" d="M247.81,255.14l-4.58-2.64c14.39-20.47,22-31.33,22-31.34a23.88,23.88,0,0,1,3.41,9h0c-1.76-.33-2.5.31-4.26,1.33h0a4.79,4.79,0,0,0-2.19,3c-1,3.89,1.4,9.09,4.63,11.79,0,.22-.09.43-.13.65-1.48-2.28-4.11-4.84-6.73-5.08a3.79,3.79,0,0,0-2.18.41s-1.7,1-1.8,1a5.32,5.32,0,0,0-2.31,4.6,13.53,13.53,0,0,0,3.54,8.88l-.17.15c-1.35-1.53-3.4-3.12-5.4-3.29a3.61,3.61,0,0,0-2.19.44Z" transform="translate(-27.62 -35.25)"/><path class="cls-25" d="M265.11,255.15l-.48,2.41c-.88,1.76-2.75,2-4.57,1.06-5.25-2.59-8-11.87-3.85-13.41C259.77,243.89,265,249.94,265.11,255.15Z" transform="translate(-27.62 -35.25)"/><path class="cls-3" d="M263.33,264.1l-.3,1.53-27.26-15.74c.1-.51.21-1,.31-1.52l1.43.82h0l3.75,2.17h0Z" transform="translate(-27.62 -35.25)"/><path class="cls-26" d="M266.86,246.36c-3.23-2.7-5.65-7.9-4.63-11.79a4.79,4.79,0,0,1,2.19-3h0c2-1.17,4.33.35,4.47.35a22,22,0,0,1,.06,2.81h0c-2.94-2.34-5.53-1.67-6.26.85-.81,2.81.83,7.68,4.26,10.4h0Z" transform="translate(-27.62 -35.25)"/><path class="cls-29" d="M257.25,256.87c2,2.22,4.51,3.62,6.89,3.17l-.81,4.06-3.2-1.85a16,16,0,0,0-3.05-5.23Z" transform="translate(-27.62 -35.25)"/><path class="cls-26" d="M260,241.93c2.64.24,5.27,2.84,6.73,5.08-.2,1-.39,2-.59,3a16.64,16.64,0,0,0-2-3.26c-1.39-1.73-3.62-3.61-5.81-3.81a3.82,3.82,0,0,0-2.19.41C257.79,242.36,258.44,241.79,260,241.93Z" transform="translate(-27.62 -35.25)"/><path class="cls-26" d="M260.06,258.62c1.82.9,3.69.7,4.57-1.06-.16.82-.33,1.65-.49,2.48-3.32.63-6.59-2.28-8.4-5.21l.25-.15A10.56,10.56,0,0,0,260.06,258.62Z" transform="translate(-27.62 -35.25)"/><path class="cls-26" d="M256,254.68l-.25.15a12.68,12.68,0,0,1-2-6.84c.09-2.85,1.75-5.34,4.6-5.08,2.19.2,4.42,2.08,5.81,3.81a16.64,16.64,0,0,1,2,3.26c-.34,1.73-.69,3.45-1,5.17-.06-4.37-3.73-9.31-7.1-10C254,244.31,252.84,249.58,256,254.68Z" transform="translate(-27.62 -35.25)"/><path class="cls-3" d="M239.53,231.51l13.12,7.58-.85,1.21-11.3-6.52q-1.35,3.14-2.72,6.28c.58-2.85,1.17-5.7,1.75-8.55Z" transform="translate(-27.62 -35.25)"/><path class="cls-13" d="M240.5,233.78l11.3,6.52-8.57,12.2-2-1.14C241.26,249,241.56,258.73,240.5,233.78Z" transform="translate(-27.62 -35.25)"/><path class="cls-26" d="M249.49,254.17a3.63,3.63,0,0,1,2.19-.44c2,.17,4,1.76,5.4,3.29a15.91,15.91,0,0,1,3.05,5.23l-2.91-1.68c-1.46-2.55-4.28-5.55-7.13-5.85a3.72,3.72,0,0,0-2.26.4Z" transform="translate(-27.62 -35.25)"/><path class="cls-26" d="M247.81,255.14l0,0a3.72,3.72,0,0,1,2.26-.4c2.81.3,5.63,3.24,7.13,5.85Z" transform="translate(-27.62 -35.25)"/><path class="cls-13" d="M242.31,263.73a2.73,2.73,0,0,1-.24,1.26,2.71,2.71,0,0,1-1.16-.54Z" transform="translate(-27.62 -35.25)"/><path class="cls-27" d="M240.91,264.45a2.71,2.71,0,0,0,1.16.54c-.48.95-1.58,1.13-2.73.26Z" transform="translate(-27.62 -35.25)"/><path class="cls-4" d="M240.5,233.78c.23,5.25.48,11.22.76,17.58l-3.75-2.17c0-.11,0,1.06,0-7.91C237.84,239.74,237.39,241,240.5,233.78Z" transform="translate(-27.62 -35.25)"/><path class="cls-13" d="M240.31,259.83l-1.4.72a2.75,2.75,0,0,1,.24-1.25A2.51,2.51,0,0,1,240.31,259.83Z" transform="translate(-27.62 -35.25)"/><path class="cls-27" d="M239.15,259.3a2.75,2.75,0,0,0-.24,1.25l-1.57.8C237.32,260.11,237.93,259.1,239.15,259.3Z" transform="translate(-27.62 -35.25)"/><path class="cls-27" d="M242.23,267.24a2.78,2.78,0,0,0,1.33-2.54c.18-3.77-3.5-8.05-6.06-6.91L239,257c2.42-1.23,6.34,2.87,6.15,6.87a2.83,2.83,0,0,1-1.33,2.54c-.16.07-1.41.72-1.57.8Z" transform="translate(-27.62 -35.25)"/><path class="cls-4" d="M236.08,248.37c.48-2.37,1-4.73,1.45-7.09,0,2.64,0,5.28,0,7.91Z" transform="translate(-27.62 -35.25)"/><path class="cls-28" d="M237.34,261.35l-1.12.58c-.32-1.55-.14-3.48,1.28-4.14,2.56-1.14,6.24,3.14,6.06,6.91-.15,3.19-3,3.69-5.34,1.13l1.12-.58c1.59,1.2,3,.38,3-1.52,0-2.42-2.39-5.08-4-4.34A1.94,1.94,0,0,0,237.34,261.35Z" transform="translate(-27.62 -35.25)"/><path class="cls-5" d="M271.34,278l-4.07,2.2h0c-.84.42-1.28.47-1.57.36s-.58-.94-.63-1.38c-.15-1.37-.25-.11,5.87-30.87,0-.15,2.47-12.06,2.3-12.23.86-9.1-3.53-19.77-11.41-24.24h0c-1.58-.89-.42-.22-4.29-2.54-8.59-5.12-17.87-.4-20.08,10.51-.77,3.74-6.68,32.63-7.83,38.26-1.37,6.74,3.32,10.46,8.47,7.83h0l4.2-2.15a5.35,5.35,0,0,0-2-3.9c-4.29,2.19-4.66,2.49-5.42,2.52-.44,0-.7-.14-.91-.68a5.46,5.46,0,0,1,0-2.81c1.42-6.92,3.75-18.31,5.6-27.35h0q1.11-5.46,2.24-10.92h0c1.56-7.58,7.36-11.27,13.59-7.51.14.14,4.23,2.5,4.38,2.58h0c6,3.44,9.55,11.8,9.22,19-.08,1.84-.07,1.59-2.09,11.68-1.67,8.61-6,29.82-6,30-1.34,6.79,3.34,10.44,8.4,7.72h0c.16-.11,3.89-2.11,4-2.19A5.31,5.31,0,0,0,271.34,278Z" transform="translate(-27.62 -35.25)"/><path class="cls-3" d="M233.32,240c-.08.43-.17.85-.26,1.28l-7.4,1.07,6.42,3.71c-.1.51-.21,1-.31,1.52h0l-10.19-5.88Z" transform="translate(-27.62 -35.25)"/><path class="cls-4" d="M233.06,241.28c-.32,1.59-.65,3.19-1,4.78l-6.42-3.71Z" transform="translate(-27.62 -35.25)"/><path class="cls-30" d="M327.17,173.87a79.81,79.81,0,0,0-15.25,3.86,33.07,33.07,0,0,0-4.05,1.88c.43,3.17,1,6.49-2,11.68a28.55,28.55,0,0,1-3.29,4.55,35,35,0,0,0-5,3.38c-4,3.37-7.64,8.58-11.27,13-.72.86-1.43,1.69-2.15,2.47-3.59,3.9-7.29,6.52-11.55,5.4a6,6,0,0,1-2.58-3l-.06-.18a7.63,7.63,0,0,1,.8-6.41,19.48,19.48,0,0,1,3.59-4.14c3.28-3.09,7.85-6.62,11.61-11.18a12.14,12.14,0,0,0,3-4.46l.09-.23a15.61,15.61,0,0,0,.73-2.8c-7.36,1-22.94,7.54-26.45,13.61a44,44,0,0,0-2.83,7.8,60.17,60.17,0,0,0-1.57,6.65c2.44,9.11,5.51,9.4,3.59,12.73a4.56,4.56,0,0,1-6.08,1.52c-1.92-1.11-4.9-7.15-5.9-9.16-1.61-5.45-.82-6.51.62-19.39,5.07-9.15,6.26-8.11,10-11.67a48.94,48.94,0,0,0,3.73-4.24c.24-.5.47-1,.73-1.48,6-3.86,24.41-16.84,39-20.27,2.28-1,4.55-2.07,6.9-2.88,5.35-1.86,10.8-3.26,16.05-5.28a15.14,15.14,0,0,1,3.65,4.14,16.84,16.84,0,0,1,2,5.14A7.57,7.57,0,0,1,327.17,173.87Z" transform="translate(-27.62 -35.25)"/><path class="cls-31" d="M289.76,187.65a12.56,12.56,0,0,1-3.83,7.5c.26-.32.52-.64.77-1C280,192.57,270.15,197,262,204.4c-.57,1.56-1.09,3.1-1.55,4.67a44.87,44.87,0,0,1,2.84-7.81C266.83,195.19,282.41,188.63,289.76,187.65Z" transform="translate(-27.62 -35.25)"/><path class="cls-31" d="M259.36,230.5c2.11,4.59,2.55,8.27-2.17,10.35a2.59,2.59,0,0,1-1.27-.33c-1-.58-1.53-1.94-2.49-4.2h0a92.38,92.38,0,0,0,.24-9.71,10.63,10.63,0,0,0,2.76,3.36,4.52,4.52,0,0,0,2.93.53Z" transform="translate(-27.62 -35.25)"/><g class="cls-10"><path class="cls-32" d="M353.43,432.14a21.47,21.47,0,0,0,4,1.92c-16,.56-33.81,1.27-37.39,1.53a4.66,4.66,0,0,1-2.69-.69c-14.75-8.54-65.06-37.54-68.43-39.57,6.87-1.7,13.49-3.33,16.93-4.07a3.5,3.5,0,0,0,2.25-1.57c1.92-2.7,3.92-5.36,5.79-8.1a2.94,2.94,0,0,1,3-1.4c.83.05,50.78,2.3,51,2.26,2.79-.5,5,.78,7.27,2.15,3.7,2.25,7.51,4.32,11.23,6.53a2.07,2.07,0,0,0,2.42,0,31.18,31.18,0,0,1,11.52-3.94,10.43,10.43,0,0,1,4.22.36l4.17,1.13v2.71c-1.81-.5-3.83-1-6.12-1.68a4.58,4.58,0,0,0-2.11-.12,27.74,27.74,0,0,0-9.23,3.78c3.57,2.57.27.78,16.63,10.09a8.34,8.34,0,0,0,.8.38v3.33S372.64,438.09,353.43,432.14Z" transform="translate(-27.62 -35.25)"/><path class="cls-32" d="M312.49,353.76l-18.36,4.44-7.67,10.59c.16-9.42,4-89.37,4.11-87.26,0,0,2.5-6,3.12-7.45a3.39,3.39,0,0,0-2.76,1.68l-1.49,3.42s-1.66-.87-2.41-1.28l3-4.35c-4.33-1.33-6.56-4.64-8.32-8.6l3.66.64c-.36-2.86-.66-5.42-1-8-.41-2.81-1.42-5.37-.45-7.27a2.93,2.93,0,0,0-.25-3.29,23.16,23.16,0,0,0-6.86-7.21c.8,3.05,1.51,5.73,2.24,8.5-3,1.49-3.39,4.08-3.18,6.87-1.9-.05-1.9-.05-6.14-3.53a6,6,0,0,0-.24,4.27c.49,1.38,1.5,3.16,1.88,4.68A5.87,5.87,0,0,0,268,266c-1.76,3.3-1.08,3.59-2,7.09-.18.68-.79,4.63-.89,5.33-.19,1.37-.39,2.28.72,3.14,1.6,1.23,2.92,1.27,4.42-.07a16.63,16.63,0,0,1,1.77-1.25,2.25,2.25,0,0,1,.58,2.5,4.17,4.17,0,0,0,.28,2.68c1.46-.68,1.35-2.2,1.19-4-.07-.75.92-1.37,1.82-1.49.67,2.09.63,4.54.93,6.74a2.63,2.63,0,0,1-.56,1.82,2.06,2.06,0,0,0-.29,2.12,59.94,59.94,0,0,0,2.39,7.27c-.47-7.91-.95-15.83-1.43-23.91l3-.37a24.49,24.49,0,0,0,.61-3.2c.06-1.08,1-1.79,2.21-2.12.75,2.5,1,5.17,1.86,7.91a10.43,10.43,0,0,0-2-.6,10.56,10.56,0,0,0-2,.26c0,7.25-.22,1,.69,15.12.15,2.2.9,14.25,1,16.48a3.65,3.65,0,0,1-1,2.75c-3.33-1.25-7-16.36-7.9-19.79a3.24,3.24,0,0,0-1-1.8,5.46,5.46,0,0,1-2.31-4c0-.27-.47-.17-.65-.58-3.13,1.63-6.21,1.35-8.06-2.17,1-2.86.74-.66,3.54-14.29q3.21-15.6,6.34-31.2a24.56,24.56,0,0,0,.51-8.84,2.27,2.27,0,0,1,.12-1.09c0,1.34,1,1.78,1.91,2.36,7.77,5,13.07,16.5,16.07,25.22.09.27.14.56.26,1.06l-1.92.8a5,5,0,0,0,.44,4.66,14.74,14.74,0,0,0,.43-2.16c.05-1.06.55-1.63,1.74-1.86,1.06,3.71,2.45,7.34,2.84,11.48,1.17-.63,1.54-1.75,2.19-2.57s1.32-1.83,2-2.85l1.45,1.16a5.45,5.45,0,0,0,.67-7.28c-.65-1,0,.78-9.17-32.5a5.51,5.51,0,0,1,0-3.65,16.28,16.28,0,0,0,.58-2.94c2.44,3,2.94,4.85,11.5,36.46a11.52,11.52,0,0,1-1,8.4,42.49,42.49,0,0,1-2.53,3.77l9.08,5.25ZM275.72,238.51a9.43,9.43,0,0,0-3-3.3c-.79,4.09-1.55,8.07-2.35,12.2a3.26,3.26,0,0,0,2.91-2.27C274.89,240.67,274.05,239.39,275.72,238.51Z" transform="translate(-27.62 -35.25)"/><path class="cls-32" d="M237.24,238.73c.72-1.58,2.4-3,3.26-4.95,5.06,10.75,4.37,10.48,5.55,12.93a1.67,1.67,0,0,1-.08,2c-1,1.28-1.69,2.33-2.74,3.83-2.4-1.37-5.53-3.18-8-4.61-1.61,6.91-1.43,6.49-2.44,10.91-.54,2.37.6,3.85,2.42,5a2.71,2.71,0,0,0,2.72-.14c1-.44,1.91-.93,2.92-1.43,1.18,1.49-.64,3.33.81,4.79,1.57-1.24,1.44-3.68,1.34-5.39.37-.18,1-.77,1.49-1,1.33,2.15.91,5.57.81,7.93a3,3,0,0,1-.45,1.66,2.17,2.17,0,0,0-.3,2.14c1.72,6.3,1.46,6.25,2.17,6.7q-.64-11.58-1.28-23.13c2.11-1,3.92-.25,5.58,1-1.08.25-1,.5-2.14.75.66,14.18,1.31,24.19,1.66,31a4.59,4.59,0,0,1-.8,3,4.25,4.25,0,0,1-2.29-2.47c-4.63-11.87-4.16-11.85-5.74-17.54a2.75,2.75,0,0,0-.57-1.26c-1.54-1.38-2.83-2.88-2.73-5.4-3.32,1.48-5,2.48-7.29,0a3.73,3.73,0,0,1-.72-2.88c1.69-3.8.7-2.9,8.26-39.81.75-3.66,1.11-10.05,7.52-12a34.41,34.41,0,0,1,4-.87l.11,1.15s-5.81.56-7.85,4.57c-1.66,3.08-1.9,5.27-5.3,22.05a9.8,9.8,0,0,0-.11,1.33Z" transform="translate(-27.62 -35.25)"/><polygon class="cls-32" points="198.04 207.1 205.44 206.03 204.46 210.81 198.04 207.1"/><path class="cls-32" d="M263.86,216.17c2.87,1.88,5.09,7.05,3.09,8.13C266.14,221.16,264.36,217.94,263.86,216.17Z" transform="translate(-27.62 -35.25)"/><path class="cls-32" d="M270.82,278.25l-2.64.95c-.39-.6,0-1,.42-1.29A1.89,1.89,0,0,1,270.82,278.25Z" transform="translate(-27.62 -35.25)"/><path class="cls-32" d="M236.5,260.8c.76-1.78,1.06-1.87,2.68-1Z" transform="translate(-27.62 -35.25)"/></g><path class="cls-30" d="M327.36,155.71c-5.17,2-10.52,3.34-15.78,5.17-2.35.81-4.62,1.88-6.9,2.88-14.63,3.43-33,16.41-39,20.27-.26.49-.49,1-.73,1.48a48.94,48.94,0,0,1-3.73,4.24c-3.76,3.55-5,2.51-10,11.67-1.44,12.88-2.23,13.94-.62,19.39,1,2,2.09,4.1,3.14,5.81a64.39,64.39,0,0,1-.94,14.41c-2,2.72-4.36,3.45-6.83,1.14h0l0,0c-.46-2.25-1.3-6.3-2.79-13.45.52-5,1.28-9.92,2-14.87,0-.16-.15-1.31-.15-1.46a34.47,34.47,0,0,1,3.06-9l0,0c8.22-14.16,9.84-13,11.25-17.7.88-.9,1.75-1.81,2.6-2.73,9.86-5.41,24.05-13.18,29.22-15.87,3-2.25.85-3.52,24.55-11,2.19-.69,4.44-1.17,6.67-1.71A9.76,9.76,0,0,1,327.36,155.71Z" transform="translate(-27.62 -35.25)"/><path class="cls-33" d="M259.29,185.66c-1.42,4.73-3,3.47-11.25,17.71l0,0a34.53,34.53,0,0,0-3.06,8.95c-.13-1.3-.25-2.6-.32-3.92,3.54-6.8,2-4.91,11.36-19.42C257.1,187.89,258.2,186.78,259.29,185.66Z" transform="translate(-27.62 -35.25)"/><path class="cls-22" d="M292.92,119.06l-14.76-8.52a6.78,6.78,0,0,1-3.27-5.16h0c0-1.81,1.46-2.43,3.27-1.39l14.76,8.52a6.81,6.81,0,0,1,3.27,5.17h0C296.19,119.48,294.72,120.1,292.92,119.06Z" transform="translate(-27.62 -35.25)"/><path class="cls-22" d="M292.92,128.26l-14.76-8.52a6.78,6.78,0,0,1-3.27-5.16h0c0-1.81,1.46-2.43,3.27-1.39l14.76,8.52a6.81,6.81,0,0,1,3.27,5.17h0C296.19,128.68,294.72,129.3,292.92,128.26Z" transform="translate(-27.62 -35.25)"/><path class="cls-22" d="M353.06,138.91,281.44,97.56c-3.72-2.15-6.74-6.91-6.74-10.64h0c0-3.72,3-5,6.74-2.85l71.62,41.35c3.72,2.15,6.74,6.91,6.74,10.64h0C359.8,139.78,356.78,141.06,353.06,138.91Z" transform="translate(-27.62 -35.25)"/><path class="cls-7" d="M251.1,64.24v17.3c0,6.06-4.25,13.43-9.5,16.45l-2.22,1.28L234.11,112l-5.27-6.6-2.22,1.28c-5.28,3-9.5.54-9.5-5.48V83.86c0-6.06,4.26-13.42,9.5-16.45l15-8.65c2.57-1.48,4.9-1.65,6.61-.72l.11.06C250,59.09,251.1,61.22,251.1,64.24Z" transform="translate(-27.62 -35.25)"/><path class="cls-5" d="M212.2,102.86c-1.72-1-2.78-3.13-2.78-6.15V79.41c0-6.06,4.25-13.42,9.5-16.45l15-8.65c2.63-1.51,5-1.65,6.72-.66l7.6,4.39c-1.71-.93-4-.76-6.61.72l-15,8.65c-5.24,3-9.5,10.39-9.5,16.45v17.3c0,3,1,5,2.66,6.07Z" transform="translate(-27.62 -35.25)"/><path class="cls-5" d="M228.84,105.36l5.27,6.6-7.71-4.44L226,107C226.51,106.73,226.58,106.66,228.84,105.36Z" transform="translate(-27.62 -35.25)"/><path class="cls-34" d="M236.89,70.79a1.77,1.77,0,0,0-.6.59l-12,19c-.33.51-.33,1,0,1.19l6.48,2.74c.32.14.86-.17,1.19-.69l12-19c.33-.51.33-1.05,0-1.19l-6.48-2.74a.7.7,0,0,0-.59.1Zm0,.84,6.48,2.74c0,.1.84-1.33-12,19l-6.48-2.74Zm-.67,2.91c-1.69,1-1.69,3.5,0,2.53s1.67-3.5,0-2.53Zm0,.84c.17-.1.25-.09.31-.06a.29.29,0,0,1,.11.24c0,.49-.56.83-.74.73s-.17-.63.32-.91Zm2.93-1.28a1,1,0,0,0-.29.3l-10.1,15.93c-.23.35-.14.71.19.6a.8.8,0,0,0,.41-.35l10.1-15.93c.27-.42.08-.78-.31-.55Zm-5.46,4.42c-1.69,1-1.68,3.5,0,2.53s1.68-3.49,0-2.53Zm0,.85c.18-.1.25-.1.32-.06a.25.25,0,0,1,.1.23c0,.49-.55.83-.74.73s-.16-.63.32-.9Zm5.89-3.4c-1.69,1-1.68,3.49,0,2.52s1.68-3.49,0-2.52Zm0,.84c.18-.1.25-.1.32-.06a.25.25,0,0,1,.1.23c0,.49-.55.83-.73.73s-.17-.63.31-.9Zm-8.41,5.7c-1.69,1-1.68,3.49,0,2.52s1.67-3.49,0-2.52Zm0,.84c.17-.1.25-.1.31-.06a.26.26,0,0,1,.11.24c0,.48-.56.82-.74.72s-.17-.62.32-.9Zm5.89-3.4c-1.69,1-1.68,3.49,0,2.52s1.67-3.49,0-2.52Zm0,.84c.17-.1.25-.1.31-.06a.24.24,0,0,1,.11.24c0,.48-.55.82-.74.72s-.16-.62.32-.9Zm-8.42,5.7c-1.69,1-1.68,3.49,0,2.52s1.68-3.49,0-2.52Zm0,.84c.18-.1.25-.09.32-.06a.26.26,0,0,1,.1.24c0,.48-.55.83-.74.72s-.16-.62.32-.9Zm5.89-3.4c-1.68,1-1.68,3.5,0,2.53s1.68-3.5,0-2.53Zm0,.84c.18-.1.26-.09.32-.06a.27.27,0,0,1,.1.24c0,.48-.55.83-.73.72s-.17-.62.31-.9ZM232,87.91c-1.69,1-1.68,3.5,0,2.53s1.67-3.5,0-2.53Zm0,.84c.17-.1.25-.09.31-.06a.27.27,0,0,1,.11.24c0,.48-.56.83-.74.73s-.16-.63.32-.91Z" transform="translate(-27.62 -35.25)"/><path class="cls-2" d="M65.32,388.2c3,1.73,3,4.53,0,6.25a11.93,11.93,0,0,1-10.82,0c-3-1.72-3-4.52,0-6.25A12,12,0,0,1,65.32,388.2Z" transform="translate(-27.62 -35.25)"/><path class="cls-2" d="M191.71,434.49c5.42,3.13,5.42,8.2,0,11.33s-14.2,3.13-19.62,0-5.42-8.2,0-11.33S186.29,431.36,191.71,434.49Z" transform="translate(-27.62 -35.25)"/><path class="cls-2" d="M92,328.82c3.37,1.95,3.37,5.1,0,7a13.43,13.43,0,0,1-12.19,0c-3.37-1.94-3.37-5.09,0-7A13.49,13.49,0,0,1,92,328.82Z" transform="translate(-27.62 -35.25)"/><path class="cls-9" d="M366.33,84.79l1.08,4.48c0,.19,0,.45-.12.54L364,91.74a.5.5,0,0,0,.1-.52l-1.21-5c0-.23,0-.51.19-.57l3.15-.82.06,0,0,0Z" transform="translate(-27.62 -35.25)"/><path class="cls-9" d="M369.61,82.9l-3.28,1.89h0v0h0c.2-.26,0-.93-.45-1.16L362,81.36a1.16,1.16,0,0,1-.49-.7l-1.2-5a1.09,1.09,0,0,0-.65-.76.32.32,0,0,0-.22,0L362.76,73l0,0a.38.38,0,0,1,.22,0,1.08,1.08,0,0,1,.64.77l1.21,5a1.14,1.14,0,0,0,.49.7l3.89,2.24c.45.26.7,1.06.37,1.23Z" transform="translate(-27.62 -35.25)"/><path class="cls-9" d="M356.71,74.61a.36.36,0,0,1,.37,0l2,1.15-1,2.91c-.07.18-.25.27-.5.12l-3.89-2.24a.36.36,0,0,0-.35,0C354.48,75.9,355.6,75.26,356.71,74.61Z" transform="translate(-27.62 -35.25)"/><path class="cls-8" d="M353.71,76.59l3.89,2.24c.25.15.43.06.5-.12l1-2.91.23-.67a.37.37,0,0,1,.12-.17.32.32,0,0,1,.22,0,1.09,1.09,0,0,1,.65.76l1.2,5a1.16,1.16,0,0,0,.49.7l3.89,2.25c.41.23.65.9.45,1.16h0a0,0,0,0,1,0,0h0s0,0,0,0l0,0-.06,0-3.15.82c-.21.06-.24.34-.19.57l1.21,5a.5.5,0,0,1-.1.52l0,0c-.17.09-.44,0-.67-.33L360.1,87l-.12-.14a.57.57,0,0,0-.49-.21l-3.15.82c-.4.11-.95-.67-.8-1.13l1.2-3.58a.93.93,0,0,0-.18-.78l-3.15-4.45c-.28-.39-.27-.82-.07-1h0A.36.36,0,0,1,353.71,76.59Z" transform="translate(-27.62 -35.25)"/><path class="cls-9" d="M350,75.36l1.08,4.48c.05.19,0,.44-.13.54l-3.33,1.92c.11-.08.16-.26.1-.51l-1.2-5c-.06-.2,0-.45.12-.53a.09.09,0,0,1,.06,0l3.15-.82.1,0Z" transform="translate(-27.62 -35.25)"/><path class="cls-9" d="M344,66.26c-.08-.29-.36-.71-.65-.76a.35.35,0,0,0-.21,0l3.34-1.93,0,0a.32.32,0,0,1,.22,0c.28,0,.57.47.65.76l1.2,5a1.18,1.18,0,0,0,.49.7l3.89,2.24c.46.27.7,1.07.36,1.24L350,75.36v0c.2-.26,0-.93-.45-1.16l-3.89-2.25a1.22,1.22,0,0,1-.49-.7Z" transform="translate(-27.62 -35.25)"/><path class="cls-9" d="M340.74,65.21l2,1.15-1,2.91c-.06.19-.25.27-.5.13l-3.89-2.25a.39.39,0,0,0-.32-.05c1.11-.65,2.21-1.29,3.32-1.92A.36.36,0,0,1,340.74,65.21Z" transform="translate(-27.62 -35.25)"/><path class="cls-8" d="M343,65.69a.26.26,0,0,1,.13-.16.35.35,0,0,1,.21,0c.29,0,.57.47.65.76l1.2,5a1.22,1.22,0,0,0,.49.7l3.89,2.25c.41.23.65.9.45,1.16l0,0-.1,0-3.15.82a.09.09,0,0,0-.06,0c-.16.08-.18.33-.12.53l1.2,5c.06.25,0,.43-.1.51l0,0c-.17.1-.44,0-.68-.33l-3.14-4.45-.12-.15a.56.56,0,0,0-.49-.2L340,78c-.4.1-.95-.67-.8-1.13l1.2-3.58a.94.94,0,0,0-.19-.78l-3.14-4.45c-.28-.39-.27-.83-.06-.95a.05.05,0,0,1,0,0,.39.39,0,0,1,.32.05l3.89,2.25c.25.14.44.06.5-.13l1-2.91Z" transform="translate(-27.62 -35.25)"/><path class="cls-9" d="M333.65,65.92l1.08,4.49c0,.19,0,.44-.13.54l-3.34,1.92a.49.49,0,0,0,.11-.52l-1.21-5c-.05-.23,0-.51.19-.56L333.5,66l.06,0,0,0Z" transform="translate(-27.62 -35.25)"/><path class="cls-9" d="M326.75,56.1l3.34-1.93,0,0a.29.29,0,0,1,.21,0c.28,0,.57.46.65.76l1.2,5a1.12,1.12,0,0,0,.49.7l3.89,2.25c.46.26.69,1.06.37,1.23-1.1.64-2.18,1.27-3.28,1.89v0c.2-.26,0-.92-.45-1.16l-3.88-2.25a1.1,1.1,0,0,1-.5-.69l-1.2-5c-.07-.29-.36-.71-.65-.76a.25.25,0,0,0-.21,0Z" transform="translate(-27.62 -35.25)"/><path class="cls-9" d="M320.68,57.68,324,55.74a.37.37,0,0,1,.36,0l2,1.15-1,2.91c-.06.18-.25.27-.49.12L321,57.72A.37.37,0,0,0,320.68,57.68Z" transform="translate(-27.62 -35.25)"/><path class="cls-8" d="M320.73,58.63c-.28-.39-.27-.82-.06-1h0a.37.37,0,0,1,.36,0L324.93,60c.24.15.43.06.49-.12l1-2.91.22-.67a.24.24,0,0,1,.13-.16.25.25,0,0,1,.21,0c.29,0,.58.47.65.76l1.2,5a1.1,1.1,0,0,0,.5.69l3.88,2.25c.41.24.65.9.45,1.16a.05.05,0,0,1,0,0h0l0,0-.06,0-3.15.83c-.22,0-.24.33-.19.56l1.21,5a.49.49,0,0,1-.11.52l0,0c-.17.09-.45,0-.68-.33l-3.14-4.45-.11-.15a.63.63,0,0,0-.5-.21l-3.15.82c-.4.11-1-.67-.8-1.13l1.2-3.57a1,1,0,0,0-.19-.79Z" transform="translate(-27.62 -35.25)"/><path class="cls-9" d="M317.31,56.49,318.39,61a.48.48,0,0,1-.12.53l-3.34,1.93c.11-.08.16-.26.09-.52l-1.2-5c-.05-.22,0-.5.19-.56l3.15-.82a.19.19,0,0,0,.09,0Z" transform="translate(-27.62 -35.25)"/><path class="cls-9" d="M313.75,44.74l0,0a.3.3,0,0,1,.21,0c.29.05.57.47.65.76l1.2,5a1.18,1.18,0,0,0,.49.7l3.89,2.24c.45.27.69,1.06.37,1.24h0l-3.28,1.89v0c.2-.26,0-.93-.45-1.16L313,53.06a1.16,1.16,0,0,1-.5-.7l-1.2-5c-.07-.3-.36-.72-.65-.77a.26.26,0,0,0-.2,0h0Z" transform="translate(-27.62 -35.25)"/><path class="cls-8" d="M304.7,48.29l3.89,2.24a.33.33,0,0,0,.36,0l0,0a.38.38,0,0,0,.09-.15l1-2.91.22-.66a.23.23,0,0,1,.14-.16.26.26,0,0,1,.2,0c.29,0,.58.47.65.77l1.2,5a1.16,1.16,0,0,0,.5.7l3.88,2.25c.42.23.65.9.45,1.16,0,0,0,0-.05.05a.19.19,0,0,1-.09,0l-3.15.82c-.22.06-.24.34-.19.56l1.2,5c.07.26,0,.44-.09.52h0c-.17.1-.44,0-.67-.32l-3.15-4.46a.53.53,0,0,0-.12-.14.57.57,0,0,0-.49-.21l-3.15.82c-.4.11-.95-.67-.8-1.13l1.21-3.57a1,1,0,0,0-.19-.79l-3.15-4.45c-.27-.39-.27-.83-.06-1l0,0A.39.39,0,0,1,304.7,48.29Z" transform="translate(-27.62 -35.25)"/><path class="cls-9" d="M304.7,48.29a.39.39,0,0,0-.33-.06l3.33-1.92a.34.34,0,0,1,.36,0l2,1.15-1,2.91a.38.38,0,0,1-.09.15l0,0a.33.33,0,0,1-.36,0Z" transform="translate(-27.62 -35.25)"/><path class="cls-9" d="M300.82,47.14l.06,0,0,0,.05,0,1.08,4.48c.05.19,0,.44-.12.54L298.59,54c.11-.08.16-.26.1-.52l-1.21-5c-.05-.23,0-.5.19-.56Z" transform="translate(-27.62 -35.25)"/><path class="cls-9" d="M301,47c.2-.25,0-.92-.45-1.16l-3.88-2.24a1.18,1.18,0,0,1-.5-.7l-1.2-5c-.07-.3-.36-.72-.65-.77a.3.3,0,0,0-.21,0l3.35-1.93h0a.28.28,0,0,1,.22,0c.28,0,.58.46.64.76l1.21,5a1.1,1.1,0,0,0,.5.7l3.88,2.25c.45.26.7,1.06.37,1.24L301,47.06v0Z" transform="translate(-27.62 -35.25)"/><path class="cls-9" d="M291.73,36.91l2,1.15-1,2.91c-.07.18-.24.27-.5.13l-3.88-2.24a.4.4,0,0,0-.35-.06l3.35-1.93A.42.42,0,0,1,291.73,36.91Z" transform="translate(-27.62 -35.25)"/><path class="cls-8" d="M288.36,38.86l3.88,2.24c.26.14.43,0,.5-.13l1-2.91.23-.66a.29.29,0,0,1,.13-.17.3.3,0,0,1,.21,0c.29,0,.58.47.65.77l1.2,5a1.18,1.18,0,0,0,.5.7l3.88,2.24c.41.24.65.91.45,1.16h0l0,.05,0,0-.06,0-3.15.82c-.21.06-.24.33-.19.56l1.21,5c.06.26,0,.44-.1.52l0,0c-.17.09-.44,0-.67-.33l-3.15-4.45a.81.81,0,0,0-.12-.14.57.57,0,0,0-.49-.22l-3.15.83c-.4.11-1-.68-.79-1.14l1.2-3.57a1,1,0,0,0-.19-.78l-3.15-4.46c-.28-.39-.27-.83-.06-.94l0,0A.4.4,0,0,1,288.36,38.86Z" transform="translate(-27.62 -35.25)"/><path class="cls-16" d="M289.77,187.66c-.16,2.85-2.93,6.65-2.93,6.65-1.3-.85-5.57-.64-9,.42-6,1.83-11.67,6.08-15.78,9.67a29.36,29.36,0,0,0-1.54,4.67,60.17,60.17,0,0,0-1.57,6.65c2.44,9.11,5.51,9.4,3.59,12.73-3.56-2.14-6-9.74-5-19.16s1.65-13.46,13.4-20.54S289.77,187.66,289.77,187.66Z" transform="translate(-27.62 -35.25)"/><path class="cls-16" d="M289,190.46a15.61,15.61,0,0,0,.73-2.8A10.58,10.58,0,0,1,289,190.46Z" transform="translate(-27.62 -35.25)"/><path class="cls-16" d="M284.12,214.66c-3.59,3.9-7.29,6.52-11.55,5.4a6,6,0,0,1-2.58-3l-.06-.18s5.19,6,11.27-2.72c1.79-2.57-6.67-7.53-6.87-7.82a29.11,29.11,0,0,1,6.46,4.4A27.78,27.78,0,0,1,284.12,214.66Z" transform="translate(-27.62 -35.25)"/><path class="cls-7" d="M289.4,214.28h-3v3.27a38.94,38.94,0,0,0-11.3-10.79l-1.67-1v-5.06l3.85,2.23v0A42.75,42.75,0,0,1,289.4,214.28Z" transform="translate(-27.62 -35.25)"/><path class="cls-16" d="M331.52,160.17c1.23,5.53-15.76,7-23.15,10.86-1.74.92-2.08,2.63-1.9,4.28h0l-1.83,10.81-4.41,5.72c-4.42,5.72-7.49,5.45-9.62,7.11s-7.64,8.28-7.64,8.28l3.34,5c3.63-4.39,7.23-9.6,11.27-13a35,35,0,0,1,5-3.38,28.55,28.55,0,0,0,3.29-4.55c3-5.19,2.45-8.51,2-11.68h0s17.69,44.55,18.3,45.7,16.39,26.1,25.11-3.3S331.52,160.17,331.52,160.17Z" transform="translate(-27.62 -35.25)"/><path class="cls-16" d="M252.73,241c-2,2.72-4.36,3.45-6.83,1.14.26.2,2.26,1.58,3.21-2.58,1-4.47-2.81-33.18,2-38.17-1.44,12.88-2.23,13.94-.62,19.39,1,2,2.09,4.1,3.14,5.81A64.39,64.39,0,0,1,252.73,241Z" transform="translate(-27.62 -35.25)"/><path class="cls-5" d="M253.12,374.18,174,419.84l-57.95-33.46,79.09-45.66C203.83,345.73,219.15,354.58,253.12,374.18Z" transform="translate(-27.62 -35.25)"/><polygon class="cls-3" points="220.43 330.1 216.68 333.84 196.24 322.05 220.43 330.1"/><polygon class="cls-4" points="216.68 333.84 220.43 330.1 220.43 331.3 217.44 334.28 216.68 333.84"/><polygon class="cls-3" points="189.77 360.77 164.51 386.02 152.77 382.13 189.77 360.77"/><polygon class="cls-4" points="164.51 386.02 189.77 360.77 192.6 359.13 164.51 387.23 164.51 386.02"/><polygon class="cls-3" points="159.86 309.91 127.03 328.87 149.45 306.44 159.86 309.91"/><path class="cls-7" d="M174,419.84l79.09-45.66v1.21L174,421.05Z" transform="translate(-27.62 -35.25)"/><polygon class="cls-3" points="122.66 372.08 93.52 362.37 98.02 357.86 122.66 372.08"/><polygon class="cls-4" points="93.52 362.37 122.66 372.08 127.56 374.92 93.52 363.57 93.52 362.37"/><path class="cls-7" d="M116.08,386.38l58,33.46v1.21l-57.95-33.46Z" transform="translate(-27.62 -35.25)"/><path class="cls-35" d="M173.47,387.24a10,10,0,0,0-9,0c-2.5,1.44-2.5,3.77,0,5.21a10,10,0,0,0,9,0C176,391,176,388.68,173.47,387.24Zm-1.8,4.17a6,6,0,0,1-5.42,0c-1.5-.87-1.5-2.26,0-3.13a6,6,0,0,1,5.42,0C173.17,389.15,173.17,390.54,171.67,391.41Z" transform="translate(-27.62 -35.25)"/><path class="cls-35" d="M204.15,371.61a5.44,5.44,0,0,0-2.49-.64,2,2,0,0,0-1.12-1.44,5.9,5.9,0,0,0-5.35,0l-12.36,7.14c-.05,0-.06.06-.1.09L175,381.18,166.08,376h0l-.71-.42a5.36,5.36,0,0,0-4.81,0c-1.33.77-1.33,2,0,2.78l16.25,9.39h0l12,6.94a5.38,5.38,0,0,0,4.82,0c1.32-.77,1.32-2,0-2.78L184,386.37l9.38-5.42h0l10.77-6.21C205.66,373.87,205.66,372.48,204.15,371.61Zm-1.8,2.05L191.6,379.9l-10.31,6c-.51.3-.51.75,0,1L191.82,393c.33.19.33.5,0,.7a1.33,1.33,0,0,1-1.2,0l-6.16-3.56h0l-22.12-12.77a.36.36,0,0,1,0-.69,1.27,1.27,0,0,1,1.2,0l1.81,1h0l8.73,5a2,2,0,0,0,1.81,0l10.89-6.25c.06,0,.08-.07.13-.11L197,370.57a1.93,1.93,0,0,1,1.75,0c.48.28.48.73,0,1l-12.54,7.25c-.52.29-.52.74,0,1a2,2,0,0,0,1.8,0l12.55-7.24a1.91,1.91,0,0,1,1.8,0C202.86,372.91,202.86,373.36,202.35,373.66Z" transform="translate(-27.62 -35.25)"/></g></g></svg>