<svg width="2940" height="1261" viewBox="0 0 2940 1261" fill="none" xmlns="http://www.w3.org/2000/svg">
<path d="M1640.8 590.6V612.2C1640.8 652.2 1628 684.6 1602.4 709.4C1576.8 734.2 1543.73 746.6 1503.2 746.6C1460 746.6 1424.13 732.6 1395.6 704.6C1367.33 676.333 1353.2 641.933 1353.2 601.4C1353.2 560.6 1367.2 526.067 1395.2 497.8C1423.47 469.533 1458.4 455.4 1500 455.4C1526.13 455.4 1550 461.4 1571.6 473.4C1593.2 485.133 1610 500.867 1622 520.6L1574.8 547.8C1568.13 536.333 1558 527 1544.4 519.8C1531.07 512.6 1516.13 509 1499.6 509C1472.93 509 1450.93 517.8 1433.6 535.4C1416.53 552.733 1408 574.733 1408 601.4C1408 627.8 1416.67 649.667 1434 667C1451.6 684.067 1474.8 692.6 1503.6 692.6C1524.93 692.6 1542.53 687.933 1556.4 678.6C1570.53 669 1580.13 655.933 1585.2 639.4H1500.4V590.6H1640.8ZM1898.86 535.4C1921.8 535.4 1940.06 542.867 1953.66 557.8C1967.53 572.733 1974.46 592.733 1974.46 617.8V741H1922.86V621.4C1922.86 609.4 1919.93 600.067 1914.06 593.4C1908.2 586.733 1899.93 583.4 1889.26 583.4C1877.53 583.4 1868.33 587.267 1861.66 595C1855.26 602.733 1852.06 613.933 1852.06 628.6V741H1800.46V621.4C1800.46 609.4 1797.53 600.067 1791.66 593.4C1785.8 586.733 1777.53 583.4 1766.86 583.4C1755.4 583.4 1746.2 587.267 1739.26 595C1732.6 602.733 1729.26 613.933 1729.26 628.6V741H1677.66V541H1729.26V562.2C1741.26 544.333 1759.8 535.4 1784.86 535.4C1809.4 535.4 1827.53 545 1839.26 564.2C1852.6 545 1872.46 535.4 1898.86 535.4ZM2170.29 541H2221.89V741H2170.29V717.4C2154.82 736.867 2133.09 746.6 2105.09 746.6C2078.42 746.6 2055.49 736.467 2036.29 716.2C2017.35 695.667 2007.89 670.6 2007.89 641C2007.89 611.4 2017.35 586.467 2036.29 566.2C2055.49 545.667 2078.42 535.4 2105.09 535.4C2133.09 535.4 2154.82 545.133 2170.29 564.6V541ZM2075.09 681.8C2085.49 692.2 2098.69 697.4 2114.69 697.4C2130.69 697.4 2143.89 692.2 2154.29 681.8C2164.95 671.133 2170.29 657.533 2170.29 641C2170.29 624.467 2164.95 611 2154.29 600.6C2143.89 589.933 2130.69 584.6 2114.69 584.6C2098.69 584.6 2085.49 589.933 2075.09 600.6C2064.69 611 2059.49 624.467 2059.49 641C2059.49 657.533 2064.69 671.133 2075.09 681.8ZM2294.28 517C2285.74 517 2278.28 513.933 2271.88 507.8C2265.74 501.4 2262.68 493.933 2262.68 485.4C2262.68 476.867 2265.74 469.4 2271.88 463C2278.28 456.6 2285.74 453.4 2294.28 453.4C2303.08 453.4 2310.54 456.6 2316.68 463C2323.08 469.4 2326.28 476.867 2326.28 485.4C2326.28 493.933 2323.08 501.4 2316.68 507.8C2310.54 513.933 2303.08 517 2294.28 517ZM2268.68 741V541H2320.28V741H2268.68ZM2367.51 741V449H2419.11V741H2367.51Z" fill="#EA4435"/>
<path d="M856.379 662.3L532.482 456.178C515.737 445.104 504.01 427.897 499.828 408.262C495.645 388.627 499.341 368.135 510.12 351.198C520.898 334.262 537.897 322.235 557.456 317.709C577.014 313.183 597.568 316.519 614.691 326.999L852.318 478.21L1065.67 328.857C1082.32 317.577 1102.74 313.298 1122.51 316.943C1142.28 320.588 1159.83 331.866 1171.36 348.34C1182.89 364.814 1187.48 385.162 1184.13 404.989C1180.79 424.817 1169.77 442.532 1153.48 454.309L856.379 662.3Z" fill="#EA4435"/>
<path d="M1135.1 851H1033V391.571C1033 371.263 1041.07 351.787 1055.43 337.427C1069.79 323.067 1089.26 315 1109.57 315V315C1129.88 315 1149.36 323.067 1163.72 337.427C1178.08 351.787 1186.14 371.263 1186.14 391.571V799.952C1186.14 813.491 1180.77 826.475 1171.19 836.049C1161.62 845.622 1148.63 851 1135.1 851V851Z" fill="#00AC47"/>
<path d="M1185.04 380.48C1184.81 378.949 1184.83 377.384 1184.51 375.856C1184.02 373.512 1183.11 371.348 1182.41 369.087C1181.73 366.498 1180.91 363.948 1179.96 361.447C1179.45 360.235 1178.67 359.171 1178.09 357.991C1176.5 354.589 1174.66 351.309 1172.59 348.178C1171.57 346.695 1170.29 345.431 1169.16 344.027C1167.23 341.476 1165.14 339.047 1162.9 336.756C1161.2 335.104 1159.27 333.723 1157.42 332.235C1155.46 330.554 1153.42 328.972 1151.3 327.496C1149.27 326.173 1147.06 325.155 1144.91 324.027C1142.66 322.85 1140.45 321.569 1138.1 320.63C1135.83 319.716 1133.41 319.134 1131.04 318.437C1128.67 317.74 1126.31 316.906 1123.88 316.454C1120.86 315.969 1117.82 315.663 1114.76 315.535C1112.83 315.4 1110.91 315.06 1108.96 315.076C1105.35 315.181 1101.75 315.543 1098.19 316.16C1096.76 316.375 1095.31 316.357 1093.88 316.653C1089.07 318.125 1084.26 319.639 1079.47 321.196C1078.16 321.758 1077.01 322.592 1075.73 323.225C1062.77 329.274 1051.84 338.946 1044.26 351.074C1036.68 363.202 1032.77 377.267 1033.01 391.568V538.636L1153.48 454.298C1165.31 446.358 1174.59 435.16 1180.19 422.058C1185.79 408.956 1187.47 394.513 1185.03 380.475L1185.04 380.48Z" fill="#FFBA00"/>
<path d="M573.571 315C593.879 315 613.356 323.067 627.716 337.427C642.076 351.787 650.143 371.263 650.143 391.571V851H548.048C534.509 851 521.525 845.622 511.952 836.048C502.378 826.475 497 813.491 497 799.952V391.571C497 371.263 505.067 351.787 519.427 337.427C533.787 323.067 553.263 315 573.571 315V315Z" fill="#4285F4"/>
<path d="M498.111 380.486C498.336 378.954 498.318 377.39 498.637 375.861C499.127 373.518 500.038 371.353 500.738 369.092C501.415 366.504 502.232 363.955 503.183 361.455C503.693 360.243 504.479 359.178 505.061 357.999C506.648 354.595 508.486 351.314 510.559 348.183C511.58 346.7 512.856 345.436 513.984 344.033C515.92 341.481 518.011 339.053 520.248 336.761C521.945 335.109 523.88 333.729 525.728 332.241C527.689 330.558 529.733 328.976 531.854 327.501C533.878 326.179 536.093 325.16 538.235 324.032C540.448 322.78 542.722 321.641 545.049 320.617C547.321 319.703 549.741 319.121 552.109 318.424C554.478 317.728 556.839 316.893 559.274 316.441C562.291 315.957 565.333 315.65 568.386 315.522C570.326 315.387 572.242 315.048 574.187 315.063C577.798 315.168 581.397 315.531 584.956 316.148C586.393 316.362 587.84 316.344 589.269 316.64C591.74 317.27 594.177 318.026 596.569 318.907C598.975 319.546 601.348 320.306 603.678 321.184C604.99 321.745 606.141 322.58 607.417 323.213C610.725 324.767 613.917 326.558 616.968 328.573C627.194 335.594 635.557 344.999 641.335 355.975C647.113 366.951 650.133 379.169 650.134 391.573V538.641L529.661 454.308C517.833 446.366 508.558 435.168 502.959 422.067C497.36 408.966 495.676 394.523 498.111 380.486V380.486Z" fill="#C52528"/>
<rect x="25" y="25" width="2890" height="1211" rx="275" stroke="#EA4435" stroke-width="50"/>
</svg>
